<svg width="204" height="71" viewBox="0 0 204 71" fill="none" xmlns="http://www.w3.org/2000/svg">
<g filter="url(#filter0_d_112_44)">
<mask id="path-1-outside-1_112_44" maskUnits="userSpaceOnUse" x="0.115234" y="0" width="200" height="67" fill="black">
<rect fill="white" x="0.115234" width="200" height="67"/>
<path d="M16.8508 5.25641C17.9578 4.65257 19.2158 4.12421 20.6247 3.67134C22.0337 3.16814 23.493 2.79074 25.0026 2.53914C26.5122 2.23722 28.0217 2.0611 29.5313 2.01078C31.0913 1.96046 32.5505 2.08626 33.9092 2.38818C37.8844 3.24362 41.2307 4.87901 43.948 7.29436C46.6652 9.70971 48.7535 12.5276 50.2128 15.7481C51.7224 18.9685 52.603 22.4406 52.8546 26.1643C53.1565 29.8376 52.8546 33.3852 51.9488 36.8069C51.6469 37.8133 51.1437 38.9707 50.4392 40.279C49.8354 41.386 49.0051 42.7446 47.9484 44.3549C46.8917 45.9148 45.5079 47.6508 43.797 49.563C44.1996 50.4687 44.6021 51.1984 45.0047 51.7519C45.4576 52.2551 45.8853 52.6325 46.2878 52.8841C46.7407 53.186 47.1684 53.3873 47.571 53.4879C47.9735 53.5382 48.4516 53.5634 49.0051 53.5634C49.458 53.5634 49.9863 53.5382 50.5902 53.4879C51.2443 53.3873 51.9488 53.2363 52.7036 53.035L40.9288 62.8474C40.7778 62.0423 40.6017 61.3378 40.4004 60.734C40.2495 60.1805 40.1237 59.7024 40.023 59.2999L39.5701 58.1677C39.3689 57.9161 39.1676 57.589 38.9663 57.1864C38.765 56.8845 38.5386 56.5071 38.287 56.0542C38.0354 55.6014 37.7083 55.0982 37.3057 54.5446C34.1356 55.7523 31.2422 56.5323 28.6256 56.8845C26.0593 57.2367 23.7194 57.2619 21.606 56.96C19.4925 56.7084 17.6056 56.2304 15.945 55.5259C14.2844 54.7711 12.8252 53.9156 11.5672 52.9596C8.64863 50.6952 6.35908 47.7263 4.69853 44.053C2.83669 39.021 1.98126 34.4167 2.13222 30.2402C2.3335 26.0133 3.13861 22.2645 4.54757 18.9937C5.95652 15.6726 7.76803 12.8547 9.9821 10.54C12.2465 8.22528 14.536 6.46408 16.8508 5.25641ZM28.0217 43.6001C27.267 43.3988 26.5625 43.3233 25.9083 43.3736C25.3548 43.424 24.8013 43.6001 24.2478 43.902C23.6942 44.2039 23.2917 44.7574 23.0401 45.5626C23.6942 46.2167 24.2981 46.7702 24.8516 47.2231C25.4554 47.6257 25.9586 47.9527 26.3612 48.2043C26.8644 48.5063 27.3173 48.7579 27.7198 48.9591C28.4243 49.2107 29.1288 49.412 29.8333 49.563C30.4371 49.6636 31.0913 49.7139 31.7957 49.7139C32.5505 49.6636 33.255 49.4623 33.9092 49.1101C33.406 48.0534 32.8021 47.1728 32.0977 46.4683C31.4435 45.7135 30.8145 45.1348 30.2107 44.7323C29.5062 44.2291 28.7765 43.8517 28.0217 43.6001ZM20.0209 40.8828C20.8763 39.5745 21.8073 38.6436 22.8137 38.0901C23.82 37.5366 24.7761 37.134 25.6819 36.8824C26.7386 36.6811 27.8205 36.6056 28.9275 36.656C29.9842 36.9076 31.0409 37.3353 32.0977 37.9391C33.0034 38.4926 33.9595 39.2726 34.9659 40.279C35.9723 41.2351 36.9032 42.5434 37.7586 44.2039C38.5637 42.9962 39.1676 41.7383 39.5701 40.4299C39.9727 39.1216 40.2746 37.9391 40.4759 36.8824C40.6772 35.6244 40.7778 34.3916 40.7778 33.1839C40.6772 31.3221 40.4759 29.3596 40.174 27.2965C39.8721 25.2334 39.4192 23.1954 38.8153 21.1826C38.2618 19.1698 37.5574 17.2577 36.7019 15.4462C35.8465 13.6347 34.8149 12.0747 33.6072 10.7664C32.4499 9.45811 31.0913 8.47688 29.5313 7.82272C28.0217 7.16856 26.3109 6.99244 24.3987 7.29436C22.2853 7.59628 20.5493 8.45172 19.1906 9.86067C17.8823 11.2696 16.8508 12.9302 16.096 14.8423C15.3915 16.7042 14.9386 18.717 14.7373 20.8807C14.5864 22.9941 14.6115 24.9063 14.8128 26.6172C14.9638 28.0261 15.2657 29.5105 15.7186 31.0705C16.1211 32.3788 16.6495 33.8884 17.3036 35.5992C17.9578 37.3101 18.8635 39.0713 20.0209 40.8828Z"/>
<path d="M56.855 22.2393C58.1633 22.4909 59.2955 22.6922 60.2516 22.8432C61.258 22.9438 62.1134 23.0445 62.8179 23.1451C63.623 23.2457 64.3275 23.3212 64.9313 23.3715C65.5351 23.4219 66.2396 23.4722 67.0447 23.5225C68.4034 23.5728 70.3155 23.5728 72.7812 23.5225C71.3219 23.4219 70.1646 23.7992 69.3091 24.6547C68.504 25.4598 67.9002 26.3907 67.4976 27.4474C66.9944 28.7054 66.7177 30.1647 66.6673 31.8253C66.5667 34.0393 66.617 36.0521 66.8183 37.8636C67.0699 39.6248 67.4976 41.1344 68.1015 42.3924C68.7556 43.6001 69.611 44.5058 70.6678 45.1097C71.7245 45.6632 73.0831 45.8142 74.7437 45.5626C76.4042 45.311 77.6622 44.7323 78.5177 43.8265C79.4234 42.8704 80.0776 41.7131 80.4801 40.3545C80.8827 38.9455 81.1091 37.3604 81.1594 35.5992C81.2601 33.838 81.3356 32.0014 81.3859 30.0892C81.3859 28.1771 81.3607 26.8184 81.3104 26.0133C81.3104 25.1579 81.2852 24.6044 81.2349 24.3528C81.1846 24.1012 81.1091 24.0005 81.0085 24.0508C80.9078 24.0508 80.782 23.925 80.6311 23.6735C80.5304 23.4722 80.3795 23.2709 80.1782 23.0696C80.0272 22.8683 79.826 22.6419 79.5744 22.3903C79.3228 22.0884 79.046 21.7865 78.7441 21.4845C80.0524 21.5349 81.2098 21.5852 82.2162 21.6355C83.2729 21.6355 84.1535 21.6607 84.8579 21.711C85.6631 21.7613 86.3675 21.8116 86.9714 21.8619C87.5249 21.9123 88.2545 21.9877 89.1603 22.0884C89.9151 22.189 90.8963 22.2897 92.104 22.3903C93.3117 22.4909 94.7458 22.6419 96.4063 22.8432C95.249 23.0948 94.3181 23.4722 93.6136 23.9754C92.9091 24.4786 92.3556 24.9818 91.953 25.485C91.5002 26.0385 91.1731 26.6423 90.9718 27.2965C90.8208 28.1519 90.8208 29.4602 90.9718 31.2214C91.0724 32.7813 91.324 34.9199 91.7266 37.6372C92.1292 40.3545 92.7581 43.9272 93.6136 48.3553L87.6507 51.9029L86.443 41.8641C84.9837 44.3297 83.4238 46.2419 81.7633 47.6005C80.153 48.9088 78.6434 49.8649 77.2345 50.4687C75.5739 51.1732 73.9637 51.5758 72.4038 51.6764C70.3407 51.6764 68.5543 51.5506 67.0447 51.299C65.5855 50.9971 64.3275 50.6197 63.2708 50.1668C62.214 49.7139 61.3586 49.2107 60.7044 48.6572C60.1006 48.0534 59.6477 47.4495 59.3458 46.8457C58.6413 45.5877 58.2639 43.9775 58.2136 42.015C58.1633 40.0022 58.2388 38.0146 58.4401 36.0521C58.6413 34.0393 58.8678 32.2027 59.1194 30.5421C59.371 28.8815 59.4465 27.7494 59.3458 27.1455C59.2452 26.6926 59.0942 26.1894 58.8929 25.6359C58.6917 25.183 58.4401 24.6798 58.1381 24.1263C57.8362 23.5225 57.4085 22.8935 56.855 22.2393Z"/>
<path d="M97.5385 23.2206L111.427 23.3715C110.622 26.441 110.018 29.0577 109.615 31.2214C109.263 33.3852 109.037 35.1967 108.936 36.656C108.735 38.3165 108.684 39.7255 108.785 40.8828C108.936 41.9395 109.188 43.0717 109.54 44.2794C109.842 45.2858 110.295 46.4432 110.898 47.7515C111.502 49.0598 112.307 50.3681 113.314 51.6764C112.71 51.4751 112.056 51.3242 111.351 51.2235C110.647 51.1229 109.993 51.0474 109.389 50.9971C108.684 50.9468 107.98 50.9468 107.275 50.9971C106.571 51.0474 105.791 51.1229 104.936 51.2235C104.231 51.3242 103.376 51.45 102.369 51.6009C101.363 51.7519 100.306 51.9532 99.1991 52.2048C99.9539 49.9404 100.533 47.9779 100.935 46.3174C101.388 44.6568 101.715 43.273 101.916 42.166C102.118 40.8577 102.243 39.8009 102.294 38.9958C102.294 37.9894 102.294 36.8572 102.294 35.5992C102.294 34.2909 102.294 33.0329 102.294 31.8253C102.294 30.6176 102.269 29.5609 102.218 28.6551C102.168 27.699 102.067 27.0952 101.916 26.8436L101.162 26.0888C100.86 25.8372 100.407 25.485 99.8029 25.0321C99.2494 24.5289 98.4946 23.9251 97.5385 23.2206ZM102.898 11.5967C103.954 11.0432 105.011 10.8922 106.068 11.1438C107.175 11.3954 108.03 11.8735 108.634 12.5779C109.238 13.2824 109.439 14.1127 109.238 15.0688C109.087 16.0248 108.282 16.9558 106.823 17.8615C105.363 18.717 104.08 19.0189 102.973 18.7673C101.866 18.5157 101.086 17.9873 100.633 17.1822C100.18 16.3771 100.105 15.4462 100.407 14.3895C100.709 13.2824 101.539 12.3515 102.898 11.5967Z"/>
<path d="M108.332 5.70929C110.546 5.80993 112.433 5.88541 113.993 5.93573C115.553 5.98605 116.836 6.03637 117.843 6.08669C119.05 6.13701 120.031 6.18733 120.786 6.23764C121.591 6.28796 122.598 6.31312 123.805 6.31312C125.869 6.31312 128.787 6.16217 132.561 5.86025C131.756 6.2628 131.127 6.71568 130.674 7.21888C130.221 7.67176 129.869 8.12464 129.617 8.57751C129.315 9.13103 129.089 9.65939 128.938 10.1626C128.837 10.7664 129.064 11.6973 129.617 12.9553C130.02 14.0121 130.75 15.4462 131.806 17.2577C132.863 19.0692 134.423 21.4091 136.486 24.2773C138.952 20.6543 140.864 17.8112 142.223 15.7481C143.581 13.685 144.588 12.1251 145.242 11.0683C145.996 9.81035 146.449 8.98007 146.6 8.57751C146.55 8.32592 146.349 7.97368 145.996 7.5208C145.695 7.11824 145.191 6.6402 144.487 6.08669C143.833 5.48285 142.852 4.75321 141.543 3.89777C143.606 4.19969 145.317 4.42613 146.676 4.57709C148.085 4.72805 149.217 4.82869 150.072 4.87901C151.079 4.92933 151.909 4.92933 152.563 4.87901C153.217 4.82869 154.173 4.77837 155.431 4.72805C156.488 4.67773 157.897 4.62741 159.658 4.57709C161.47 4.52677 163.785 4.45129 166.602 4.35065C165.495 4.90417 164.539 5.43253 163.734 5.93573C162.929 6.43892 162.25 6.8918 161.696 7.29436C161.042 7.79756 160.463 8.22528 159.96 8.57751C159.356 9.18135 158.249 10.4142 156.639 12.276C155.28 13.8863 153.343 16.2513 150.827 19.3711C148.311 22.4406 144.94 26.6172 140.713 31.9007C144.135 35.5238 146.902 38.392 149.016 40.5054C151.129 42.6189 152.79 44.2291 153.997 45.3361C155.406 46.6444 156.438 47.525 157.092 47.9779C157.696 48.3301 158.526 48.783 159.583 49.3365C160.489 49.8397 161.671 50.4687 163.13 51.2235C164.59 51.928 166.451 52.7834 168.716 53.7898H156.111C155.054 53.7898 153.771 53.8402 152.261 53.9408C150.953 54.0414 149.343 54.1421 147.431 54.2427C145.518 54.3434 143.279 54.5195 140.713 54.7711C141.619 54.2176 142.273 53.6892 142.675 53.186C143.128 52.6325 143.43 52.1544 143.581 51.7519C143.782 51.299 143.808 50.8965 143.657 50.5442C143.405 50.041 142.977 49.2862 142.373 48.2798C141.82 47.4244 141.04 46.2167 140.034 44.6568C139.027 43.0969 137.643 41.0338 135.882 38.4675C133.869 40.6312 132.31 42.4427 131.202 43.902C130.146 45.311 129.341 46.4432 128.787 47.2986C128.183 48.305 127.781 49.1101 127.579 49.7139C127.579 50.2675 127.705 50.821 127.957 51.3745C128.208 51.8777 128.611 52.4312 129.165 53.035C129.768 53.6389 130.649 54.2176 131.806 54.7711L109.464 55.7523C111.276 54.4943 112.785 53.3621 113.993 52.3557C115.201 51.299 116.182 50.4184 116.937 49.7139C117.792 48.8585 118.472 48.1037 118.975 47.4496C119.478 46.6948 120.258 45.5877 121.315 44.1284C122.17 42.8704 123.353 41.1847 124.862 39.0713C126.422 36.9579 128.41 34.2406 130.825 30.9195C128.158 26.6423 125.994 23.2457 124.334 20.7297C122.724 18.2138 121.415 16.2764 120.409 14.9178C119.252 13.3579 118.396 12.276 117.843 11.6722C117.339 11.2193 116.635 10.7161 115.729 10.1626C114.974 9.65939 113.993 9.05555 112.785 8.35108C111.578 7.59628 110.093 6.71568 108.332 5.70929Z"/>
<path d="M192.039 48.6572C193.851 48.4056 195.26 48.7075 196.266 49.563C197.323 50.4184 197.826 51.6009 197.776 53.1105C197.725 53.8653 197.574 54.4692 197.323 54.922C197.071 55.3749 196.719 55.7272 196.266 55.9788C195.863 56.18 195.36 56.3562 194.756 56.5071C194.203 56.6077 193.549 56.7084 192.794 56.809C192.039 56.96 191.309 56.9348 190.605 56.7336C189.9 56.482 189.271 56.1297 188.718 55.6768C188.164 55.224 187.712 54.7208 187.359 54.1672C187.057 53.6137 186.906 53.0602 186.906 52.5067C186.906 51.9029 187.057 51.3997 187.359 50.9971C187.712 50.5442 188.139 50.1668 188.643 49.8649C189.196 49.5127 189.75 49.2611 190.303 49.1101C190.907 48.9088 191.486 48.7579 192.039 48.6572Z"/>
</mask>
<path d="M16.8508 5.25641C17.9578 4.65257 19.2158 4.12421 20.6247 3.67134C22.0337 3.16814 23.493 2.79074 25.0026 2.53914C26.5122 2.23722 28.0217 2.0611 29.5313 2.01078C31.0913 1.96046 32.5505 2.08626 33.9092 2.38818C37.8844 3.24362 41.2307 4.87901 43.948 7.29436C46.6652 9.70971 48.7535 12.5276 50.2128 15.7481C51.7224 18.9685 52.603 22.4406 52.8546 26.1643C53.1565 29.8376 52.8546 33.3852 51.9488 36.8069C51.6469 37.8133 51.1437 38.9707 50.4392 40.279C49.8354 41.386 49.0051 42.7446 47.9484 44.3549C46.8917 45.9148 45.5079 47.6508 43.797 49.563C44.1996 50.4687 44.6021 51.1984 45.0047 51.7519C45.4576 52.2551 45.8853 52.6325 46.2878 52.8841C46.7407 53.186 47.1684 53.3873 47.571 53.4879C47.9735 53.5382 48.4516 53.5634 49.0051 53.5634C49.458 53.5634 49.9863 53.5382 50.5902 53.4879C51.2443 53.3873 51.9488 53.2363 52.7036 53.035L40.9288 62.8474C40.7778 62.0423 40.6017 61.3378 40.4004 60.734C40.2495 60.1805 40.1237 59.7024 40.023 59.2999L39.5701 58.1677C39.3689 57.9161 39.1676 57.589 38.9663 57.1864C38.765 56.8845 38.5386 56.5071 38.287 56.0542C38.0354 55.6014 37.7083 55.0982 37.3057 54.5446C34.1356 55.7523 31.2422 56.5323 28.6256 56.8845C26.0593 57.2367 23.7194 57.2619 21.606 56.96C19.4925 56.7084 17.6056 56.2304 15.945 55.5259C14.2844 54.7711 12.8252 53.9156 11.5672 52.9596C8.64863 50.6952 6.35908 47.7263 4.69853 44.053C2.83669 39.021 1.98126 34.4167 2.13222 30.2402C2.3335 26.0133 3.13861 22.2645 4.54757 18.9937C5.95652 15.6726 7.76803 12.8547 9.9821 10.54C12.2465 8.22528 14.536 6.46408 16.8508 5.25641ZM28.0217 43.6001C27.267 43.3988 26.5625 43.3233 25.9083 43.3736C25.3548 43.424 24.8013 43.6001 24.2478 43.902C23.6942 44.2039 23.2917 44.7574 23.0401 45.5626C23.6942 46.2167 24.2981 46.7702 24.8516 47.2231C25.4554 47.6257 25.9586 47.9527 26.3612 48.2043C26.8644 48.5063 27.3173 48.7579 27.7198 48.9591C28.4243 49.2107 29.1288 49.412 29.8333 49.563C30.4371 49.6636 31.0913 49.7139 31.7957 49.7139C32.5505 49.6636 33.255 49.4623 33.9092 49.1101C33.406 48.0534 32.8021 47.1728 32.0977 46.4683C31.4435 45.7135 30.8145 45.1348 30.2107 44.7323C29.5062 44.2291 28.7765 43.8517 28.0217 43.6001ZM20.0209 40.8828C20.8763 39.5745 21.8073 38.6436 22.8137 38.0901C23.82 37.5366 24.7761 37.134 25.6819 36.8824C26.7386 36.6811 27.8205 36.6056 28.9275 36.656C29.9842 36.9076 31.0409 37.3353 32.0977 37.9391C33.0034 38.4926 33.9595 39.2726 34.9659 40.279C35.9723 41.2351 36.9032 42.5434 37.7586 44.2039C38.5637 42.9962 39.1676 41.7383 39.5701 40.4299C39.9727 39.1216 40.2746 37.9391 40.4759 36.8824C40.6772 35.6244 40.7778 34.3916 40.7778 33.1839C40.6772 31.3221 40.4759 29.3596 40.174 27.2965C39.8721 25.2334 39.4192 23.1954 38.8153 21.1826C38.2618 19.1698 37.5574 17.2577 36.7019 15.4462C35.8465 13.6347 34.8149 12.0747 33.6072 10.7664C32.4499 9.45811 31.0913 8.47688 29.5313 7.82272C28.0217 7.16856 26.3109 6.99244 24.3987 7.29436C22.2853 7.59628 20.5493 8.45172 19.1906 9.86067C17.8823 11.2696 16.8508 12.9302 16.096 14.8423C15.3915 16.7042 14.9386 18.717 14.7373 20.8807C14.5864 22.9941 14.6115 24.9063 14.8128 26.6172C14.9638 28.0261 15.2657 29.5105 15.7186 31.0705C16.1211 32.3788 16.6495 33.8884 17.3036 35.5992C17.9578 37.3101 18.8635 39.0713 20.0209 40.8828Z" fill="url(#paint0_linear_112_44)"/>
<path d="M56.855 22.2393C58.1633 22.4909 59.2955 22.6922 60.2516 22.8432C61.258 22.9438 62.1134 23.0445 62.8179 23.1451C63.623 23.2457 64.3275 23.3212 64.9313 23.3715C65.5351 23.4219 66.2396 23.4722 67.0447 23.5225C68.4034 23.5728 70.3155 23.5728 72.7812 23.5225C71.3219 23.4219 70.1646 23.7992 69.3091 24.6547C68.504 25.4598 67.9002 26.3907 67.4976 27.4474C66.9944 28.7054 66.7177 30.1647 66.6673 31.8253C66.5667 34.0393 66.617 36.0521 66.8183 37.8636C67.0699 39.6248 67.4976 41.1344 68.1015 42.3924C68.7556 43.6001 69.611 44.5058 70.6678 45.1097C71.7245 45.6632 73.0831 45.8142 74.7437 45.5626C76.4042 45.311 77.6622 44.7323 78.5177 43.8265C79.4234 42.8704 80.0776 41.7131 80.4801 40.3545C80.8827 38.9455 81.1091 37.3604 81.1594 35.5992C81.2601 33.838 81.3356 32.0014 81.3859 30.0892C81.3859 28.1771 81.3607 26.8184 81.3104 26.0133C81.3104 25.1579 81.2852 24.6044 81.2349 24.3528C81.1846 24.1012 81.1091 24.0005 81.0085 24.0508C80.9078 24.0508 80.782 23.925 80.6311 23.6735C80.5304 23.4722 80.3795 23.2709 80.1782 23.0696C80.0272 22.8683 79.826 22.6419 79.5744 22.3903C79.3228 22.0884 79.046 21.7865 78.7441 21.4845C80.0524 21.5349 81.2098 21.5852 82.2162 21.6355C83.2729 21.6355 84.1535 21.6607 84.8579 21.711C85.6631 21.7613 86.3675 21.8116 86.9714 21.8619C87.5249 21.9123 88.2545 21.9877 89.1603 22.0884C89.9151 22.189 90.8963 22.2897 92.104 22.3903C93.3117 22.4909 94.7458 22.6419 96.4063 22.8432C95.249 23.0948 94.3181 23.4722 93.6136 23.9754C92.9091 24.4786 92.3556 24.9818 91.953 25.485C91.5002 26.0385 91.1731 26.6423 90.9718 27.2965C90.8208 28.1519 90.8208 29.4602 90.9718 31.2214C91.0724 32.7813 91.324 34.9199 91.7266 37.6372C92.1292 40.3545 92.7581 43.9272 93.6136 48.3553L87.6507 51.9029L86.443 41.8641C84.9837 44.3297 83.4238 46.2419 81.7633 47.6005C80.153 48.9088 78.6434 49.8649 77.2345 50.4687C75.5739 51.1732 73.9637 51.5758 72.4038 51.6764C70.3407 51.6764 68.5543 51.5506 67.0447 51.299C65.5855 50.9971 64.3275 50.6197 63.2708 50.1668C62.214 49.7139 61.3586 49.2107 60.7044 48.6572C60.1006 48.0534 59.6477 47.4495 59.3458 46.8457C58.6413 45.5877 58.2639 43.9775 58.2136 42.015C58.1633 40.0022 58.2388 38.0146 58.4401 36.0521C58.6413 34.0393 58.8678 32.2027 59.1194 30.5421C59.371 28.8815 59.4465 27.7494 59.3458 27.1455C59.2452 26.6926 59.0942 26.1894 58.8929 25.6359C58.6917 25.183 58.4401 24.6798 58.1381 24.1263C57.8362 23.5225 57.4085 22.8935 56.855 22.2393Z" fill="url(#paint1_linear_112_44)"/>
<path d="M97.5385 23.2206L111.427 23.3715C110.622 26.441 110.018 29.0577 109.615 31.2214C109.263 33.3852 109.037 35.1967 108.936 36.656C108.735 38.3165 108.684 39.7255 108.785 40.8828C108.936 41.9395 109.188 43.0717 109.54 44.2794C109.842 45.2858 110.295 46.4432 110.898 47.7515C111.502 49.0598 112.307 50.3681 113.314 51.6764C112.71 51.4751 112.056 51.3242 111.351 51.2235C110.647 51.1229 109.993 51.0474 109.389 50.9971C108.684 50.9468 107.98 50.9468 107.275 50.9971C106.571 51.0474 105.791 51.1229 104.936 51.2235C104.231 51.3242 103.376 51.45 102.369 51.6009C101.363 51.7519 100.306 51.9532 99.1991 52.2048C99.9539 49.9404 100.533 47.9779 100.935 46.3174C101.388 44.6568 101.715 43.273 101.916 42.166C102.118 40.8577 102.243 39.8009 102.294 38.9958C102.294 37.9894 102.294 36.8572 102.294 35.5992C102.294 34.2909 102.294 33.0329 102.294 31.8253C102.294 30.6176 102.269 29.5609 102.218 28.6551C102.168 27.699 102.067 27.0952 101.916 26.8436L101.162 26.0888C100.86 25.8372 100.407 25.485 99.8029 25.0321C99.2494 24.5289 98.4946 23.9251 97.5385 23.2206ZM102.898 11.5967C103.954 11.0432 105.011 10.8922 106.068 11.1438C107.175 11.3954 108.03 11.8735 108.634 12.5779C109.238 13.2824 109.439 14.1127 109.238 15.0688C109.087 16.0248 108.282 16.9558 106.823 17.8615C105.363 18.717 104.08 19.0189 102.973 18.7673C101.866 18.5157 101.086 17.9873 100.633 17.1822C100.18 16.3771 100.105 15.4462 100.407 14.3895C100.709 13.2824 101.539 12.3515 102.898 11.5967Z" fill="url(#paint2_linear_112_44)"/>
<path d="M108.332 5.70929C110.546 5.80993 112.433 5.88541 113.993 5.93573C115.553 5.98605 116.836 6.03637 117.843 6.08669C119.05 6.13701 120.031 6.18733 120.786 6.23764C121.591 6.28796 122.598 6.31312 123.805 6.31312C125.869 6.31312 128.787 6.16217 132.561 5.86025C131.756 6.2628 131.127 6.71568 130.674 7.21888C130.221 7.67176 129.869 8.12464 129.617 8.57751C129.315 9.13103 129.089 9.65939 128.938 10.1626C128.837 10.7664 129.064 11.6973 129.617 12.9553C130.02 14.0121 130.75 15.4462 131.806 17.2577C132.863 19.0692 134.423 21.4091 136.486 24.2773C138.952 20.6543 140.864 17.8112 142.223 15.7481C143.581 13.685 144.588 12.1251 145.242 11.0683C145.996 9.81035 146.449 8.98007 146.6 8.57751C146.55 8.32592 146.349 7.97368 145.996 7.5208C145.695 7.11824 145.191 6.6402 144.487 6.08669C143.833 5.48285 142.852 4.75321 141.543 3.89777C143.606 4.19969 145.317 4.42613 146.676 4.57709C148.085 4.72805 149.217 4.82869 150.072 4.87901C151.079 4.92933 151.909 4.92933 152.563 4.87901C153.217 4.82869 154.173 4.77837 155.431 4.72805C156.488 4.67773 157.897 4.62741 159.658 4.57709C161.47 4.52677 163.785 4.45129 166.602 4.35065C165.495 4.90417 164.539 5.43253 163.734 5.93573C162.929 6.43892 162.25 6.8918 161.696 7.29436C161.042 7.79756 160.463 8.22528 159.96 8.57751C159.356 9.18135 158.249 10.4142 156.639 12.276C155.28 13.8863 153.343 16.2513 150.827 19.3711C148.311 22.4406 144.94 26.6172 140.713 31.9007C144.135 35.5238 146.902 38.392 149.016 40.5054C151.129 42.6189 152.79 44.2291 153.997 45.3361C155.406 46.6444 156.438 47.525 157.092 47.9779C157.696 48.3301 158.526 48.783 159.583 49.3365C160.489 49.8397 161.671 50.4687 163.13 51.2235C164.59 51.928 166.451 52.7834 168.716 53.7898H156.111C155.054 53.7898 153.771 53.8402 152.261 53.9408C150.953 54.0414 149.343 54.1421 147.431 54.2427C145.518 54.3434 143.279 54.5195 140.713 54.7711C141.619 54.2176 142.273 53.6892 142.675 53.186C143.128 52.6325 143.43 52.1544 143.581 51.7519C143.782 51.299 143.808 50.8965 143.657 50.5442C143.405 50.041 142.977 49.2862 142.373 48.2798C141.82 47.4244 141.04 46.2167 140.034 44.6568C139.027 43.0969 137.643 41.0338 135.882 38.4675C133.869 40.6312 132.31 42.4427 131.202 43.902C130.146 45.311 129.341 46.4432 128.787 47.2986C128.183 48.305 127.781 49.1101 127.579 49.7139C127.579 50.2675 127.705 50.821 127.957 51.3745C128.208 51.8777 128.611 52.4312 129.165 53.035C129.768 53.6389 130.649 54.2176 131.806 54.7711L109.464 55.7523C111.276 54.4943 112.785 53.3621 113.993 52.3557C115.201 51.299 116.182 50.4184 116.937 49.7139C117.792 48.8585 118.472 48.1037 118.975 47.4496C119.478 46.6948 120.258 45.5877 121.315 44.1284C122.17 42.8704 123.353 41.1847 124.862 39.0713C126.422 36.9579 128.41 34.2406 130.825 30.9195C128.158 26.6423 125.994 23.2457 124.334 20.7297C122.724 18.2138 121.415 16.2764 120.409 14.9178C119.252 13.3579 118.396 12.276 117.843 11.6722C117.339 11.2193 116.635 10.7161 115.729 10.1626C114.974 9.65939 113.993 9.05555 112.785 8.35108C111.578 7.59628 110.093 6.71568 108.332 5.70929Z" fill="url(#paint3_linear_112_44)"/>
<path d="M192.039 48.6572C193.851 48.4056 195.26 48.7075 196.266 49.563C197.323 50.4184 197.826 51.6009 197.776 53.1105C197.725 53.8653 197.574 54.4692 197.323 54.922C197.071 55.3749 196.719 55.7272 196.266 55.9788C195.863 56.18 195.36 56.3562 194.756 56.5071C194.203 56.6077 193.549 56.7084 192.794 56.809C192.039 56.96 191.309 56.9348 190.605 56.7336C189.9 56.482 189.271 56.1297 188.718 55.6768C188.164 55.224 187.712 54.7208 187.359 54.1672C187.057 53.6137 186.906 53.0602 186.906 52.5067C186.906 51.9029 187.057 51.3997 187.359 50.9971C187.712 50.5442 188.139 50.1668 188.643 49.8649C189.196 49.5127 189.75 49.2611 190.303 49.1101C190.907 48.9088 191.486 48.7579 192.039 48.6572Z" fill="url(#paint4_linear_112_44)"/>
<path d="M16.8508 5.25641C17.9578 4.65257 19.2158 4.12421 20.6247 3.67134C22.0337 3.16814 23.493 2.79074 25.0026 2.53914C26.5122 2.23722 28.0217 2.0611 29.5313 2.01078C31.0913 1.96046 32.5505 2.08626 33.9092 2.38818C37.8844 3.24362 41.2307 4.87901 43.948 7.29436C46.6652 9.70971 48.7535 12.5276 50.2128 15.7481C51.7224 18.9685 52.603 22.4406 52.8546 26.1643C53.1565 29.8376 52.8546 33.3852 51.9488 36.8069C51.6469 37.8133 51.1437 38.9707 50.4392 40.279C49.8354 41.386 49.0051 42.7446 47.9484 44.3549C46.8917 45.9148 45.5079 47.6508 43.797 49.563C44.1996 50.4687 44.6021 51.1984 45.0047 51.7519C45.4576 52.2551 45.8853 52.6325 46.2878 52.8841C46.7407 53.186 47.1684 53.3873 47.571 53.4879C47.9735 53.5382 48.4516 53.5634 49.0051 53.5634C49.458 53.5634 49.9863 53.5382 50.5902 53.4879C51.2443 53.3873 51.9488 53.2363 52.7036 53.035L40.9288 62.8474C40.7778 62.0423 40.6017 61.3378 40.4004 60.734C40.2495 60.1805 40.1237 59.7024 40.023 59.2999L39.5701 58.1677C39.3689 57.9161 39.1676 57.589 38.9663 57.1864C38.765 56.8845 38.5386 56.5071 38.287 56.0542C38.0354 55.6014 37.7083 55.0982 37.3057 54.5446C34.1356 55.7523 31.2422 56.5323 28.6256 56.8845C26.0593 57.2367 23.7194 57.2619 21.606 56.96C19.4925 56.7084 17.6056 56.2304 15.945 55.5259C14.2844 54.7711 12.8252 53.9156 11.5672 52.9596C8.64863 50.6952 6.35908 47.7263 4.69853 44.053C2.83669 39.021 1.98126 34.4167 2.13222 30.2402C2.3335 26.0133 3.13861 22.2645 4.54757 18.9937C5.95652 15.6726 7.76803 12.8547 9.9821 10.54C12.2465 8.22528 14.536 6.46408 16.8508 5.25641ZM28.0217 43.6001C27.267 43.3988 26.5625 43.3233 25.9083 43.3736C25.3548 43.424 24.8013 43.6001 24.2478 43.902C23.6942 44.2039 23.2917 44.7574 23.0401 45.5626C23.6942 46.2167 24.2981 46.7702 24.8516 47.2231C25.4554 47.6257 25.9586 47.9527 26.3612 48.2043C26.8644 48.5063 27.3173 48.7579 27.7198 48.9591C28.4243 49.2107 29.1288 49.412 29.8333 49.563C30.4371 49.6636 31.0913 49.7139 31.7957 49.7139C32.5505 49.6636 33.255 49.4623 33.9092 49.1101C33.406 48.0534 32.8021 47.1728 32.0977 46.4683C31.4435 45.7135 30.8145 45.1348 30.2107 44.7323C29.5062 44.2291 28.7765 43.8517 28.0217 43.6001ZM20.0209 40.8828C20.8763 39.5745 21.8073 38.6436 22.8137 38.0901C23.82 37.5366 24.7761 37.134 25.6819 36.8824C26.7386 36.6811 27.8205 36.6056 28.9275 36.656C29.9842 36.9076 31.0409 37.3353 32.0977 37.9391C33.0034 38.4926 33.9595 39.2726 34.9659 40.279C35.9723 41.2351 36.9032 42.5434 37.7586 44.2039C38.5637 42.9962 39.1676 41.7383 39.5701 40.4299C39.9727 39.1216 40.2746 37.9391 40.4759 36.8824C40.6772 35.6244 40.7778 34.3916 40.7778 33.1839C40.6772 31.3221 40.4759 29.3596 40.174 27.2965C39.8721 25.2334 39.4192 23.1954 38.8153 21.1826C38.2618 19.1698 37.5574 17.2577 36.7019 15.4462C35.8465 13.6347 34.8149 12.0747 33.6072 10.7664C32.4499 9.45811 31.0913 8.47688 29.5313 7.82272C28.0217 7.16856 26.3109 6.99244 24.3987 7.29436C22.2853 7.59628 20.5493 8.45172 19.1906 9.86067C17.8823 11.2696 16.8508 12.9302 16.096 14.8423C15.3915 16.7042 14.9386 18.717 14.7373 20.8807C14.5864 22.9941 14.6115 24.9063 14.8128 26.6172C14.9638 28.0261 15.2657 29.5105 15.7186 31.0705C16.1211 32.3788 16.6495 33.8884 17.3036 35.5992C17.9578 37.3101 18.8635 39.0713 20.0209 40.8828Z" stroke="black" stroke-width="3.9254" mask="url(#path-1-outside-1_112_44)"/>
<path d="M56.855 22.2393C58.1633 22.4909 59.2955 22.6922 60.2516 22.8432C61.258 22.9438 62.1134 23.0445 62.8179 23.1451C63.623 23.2457 64.3275 23.3212 64.9313 23.3715C65.5351 23.4219 66.2396 23.4722 67.0447 23.5225C68.4034 23.5728 70.3155 23.5728 72.7812 23.5225C71.3219 23.4219 70.1646 23.7992 69.3091 24.6547C68.504 25.4598 67.9002 26.3907 67.4976 27.4474C66.9944 28.7054 66.7177 30.1647 66.6673 31.8253C66.5667 34.0393 66.617 36.0521 66.8183 37.8636C67.0699 39.6248 67.4976 41.1344 68.1015 42.3924C68.7556 43.6001 69.611 44.5058 70.6678 45.1097C71.7245 45.6632 73.0831 45.8142 74.7437 45.5626C76.4042 45.311 77.6622 44.7323 78.5177 43.8265C79.4234 42.8704 80.0776 41.7131 80.4801 40.3545C80.8827 38.9455 81.1091 37.3604 81.1594 35.5992C81.2601 33.838 81.3356 32.0014 81.3859 30.0892C81.3859 28.1771 81.3607 26.8184 81.3104 26.0133C81.3104 25.1579 81.2852 24.6044 81.2349 24.3528C81.1846 24.1012 81.1091 24.0005 81.0085 24.0508C80.9078 24.0508 80.782 23.925 80.6311 23.6735C80.5304 23.4722 80.3795 23.2709 80.1782 23.0696C80.0272 22.8683 79.826 22.6419 79.5744 22.3903C79.3228 22.0884 79.046 21.7865 78.7441 21.4845C80.0524 21.5349 81.2098 21.5852 82.2162 21.6355C83.2729 21.6355 84.1535 21.6607 84.8579 21.711C85.6631 21.7613 86.3675 21.8116 86.9714 21.8619C87.5249 21.9123 88.2545 21.9877 89.1603 22.0884C89.9151 22.189 90.8963 22.2897 92.104 22.3903C93.3117 22.4909 94.7458 22.6419 96.4063 22.8432C95.249 23.0948 94.3181 23.4722 93.6136 23.9754C92.9091 24.4786 92.3556 24.9818 91.953 25.485C91.5002 26.0385 91.1731 26.6423 90.9718 27.2965C90.8208 28.1519 90.8208 29.4602 90.9718 31.2214C91.0724 32.7813 91.324 34.9199 91.7266 37.6372C92.1292 40.3545 92.7581 43.9272 93.6136 48.3553L87.6507 51.9029L86.443 41.8641C84.9837 44.3297 83.4238 46.2419 81.7633 47.6005C80.153 48.9088 78.6434 49.8649 77.2345 50.4687C75.5739 51.1732 73.9637 51.5758 72.4038 51.6764C70.3407 51.6764 68.5543 51.5506 67.0447 51.299C65.5855 50.9971 64.3275 50.6197 63.2708 50.1668C62.214 49.7139 61.3586 49.2107 60.7044 48.6572C60.1006 48.0534 59.6477 47.4495 59.3458 46.8457C58.6413 45.5877 58.2639 43.9775 58.2136 42.015C58.1633 40.0022 58.2388 38.0146 58.4401 36.0521C58.6413 34.0393 58.8678 32.2027 59.1194 30.5421C59.371 28.8815 59.4465 27.7494 59.3458 27.1455C59.2452 26.6926 59.0942 26.1894 58.8929 25.6359C58.6917 25.183 58.4401 24.6798 58.1381 24.1263C57.8362 23.5225 57.4085 22.8935 56.855 22.2393Z" stroke="black" stroke-width="3.9254" mask="url(#path-1-outside-1_112_44)"/>
<path d="M97.5385 23.2206L111.427 23.3715C110.622 26.441 110.018 29.0577 109.615 31.2214C109.263 33.3852 109.037 35.1967 108.936 36.656C108.735 38.3165 108.684 39.7255 108.785 40.8828C108.936 41.9395 109.188 43.0717 109.54 44.2794C109.842 45.2858 110.295 46.4432 110.898 47.7515C111.502 49.0598 112.307 50.3681 113.314 51.6764C112.71 51.4751 112.056 51.3242 111.351 51.2235C110.647 51.1229 109.993 51.0474 109.389 50.9971C108.684 50.9468 107.98 50.9468 107.275 50.9971C106.571 51.0474 105.791 51.1229 104.936 51.2235C104.231 51.3242 103.376 51.45 102.369 51.6009C101.363 51.7519 100.306 51.9532 99.1991 52.2048C99.9539 49.9404 100.533 47.9779 100.935 46.3174C101.388 44.6568 101.715 43.273 101.916 42.166C102.118 40.8577 102.243 39.8009 102.294 38.9958C102.294 37.9894 102.294 36.8572 102.294 35.5992C102.294 34.2909 102.294 33.0329 102.294 31.8253C102.294 30.6176 102.269 29.5609 102.218 28.6551C102.168 27.699 102.067 27.0952 101.916 26.8436L101.162 26.0888C100.86 25.8372 100.407 25.485 99.8029 25.0321C99.2494 24.5289 98.4946 23.9251 97.5385 23.2206ZM102.898 11.5967C103.954 11.0432 105.011 10.8922 106.068 11.1438C107.175 11.3954 108.03 11.8735 108.634 12.5779C109.238 13.2824 109.439 14.1127 109.238 15.0688C109.087 16.0248 108.282 16.9558 106.823 17.8615C105.363 18.717 104.08 19.0189 102.973 18.7673C101.866 18.5157 101.086 17.9873 100.633 17.1822C100.18 16.3771 100.105 15.4462 100.407 14.3895C100.709 13.2824 101.539 12.3515 102.898 11.5967Z" stroke="black" stroke-width="3.9254" mask="url(#path-1-outside-1_112_44)"/>
<path d="M108.332 5.70929C110.546 5.80993 112.433 5.88541 113.993 5.93573C115.553 5.98605 116.836 6.03637 117.843 6.08669C119.05 6.13701 120.031 6.18733 120.786 6.23764C121.591 6.28796 122.598 6.31312 123.805 6.31312C125.869 6.31312 128.787 6.16217 132.561 5.86025C131.756 6.2628 131.127 6.71568 130.674 7.21888C130.221 7.67176 129.869 8.12464 129.617 8.57751C129.315 9.13103 129.089 9.65939 128.938 10.1626C128.837 10.7664 129.064 11.6973 129.617 12.9553C130.02 14.0121 130.75 15.4462 131.806 17.2577C132.863 19.0692 134.423 21.4091 136.486 24.2773C138.952 20.6543 140.864 17.8112 142.223 15.7481C143.581 13.685 144.588 12.1251 145.242 11.0683C145.996 9.81035 146.449 8.98007 146.6 8.57751C146.55 8.32592 146.349 7.97368 145.996 7.5208C145.695 7.11824 145.191 6.6402 144.487 6.08669C143.833 5.48285 142.852 4.75321 141.543 3.89777C143.606 4.19969 145.317 4.42613 146.676 4.57709C148.085 4.72805 149.217 4.82869 150.072 4.87901C151.079 4.92933 151.909 4.92933 152.563 4.87901C153.217 4.82869 154.173 4.77837 155.431 4.72805C156.488 4.67773 157.897 4.62741 159.658 4.57709C161.47 4.52677 163.785 4.45129 166.602 4.35065C165.495 4.90417 164.539 5.43253 163.734 5.93573C162.929 6.43892 162.25 6.8918 161.696 7.29436C161.042 7.79756 160.463 8.22528 159.96 8.57751C159.356 9.18135 158.249 10.4142 156.639 12.276C155.28 13.8863 153.343 16.2513 150.827 19.3711C148.311 22.4406 144.94 26.6172 140.713 31.9007C144.135 35.5238 146.902 38.392 149.016 40.5054C151.129 42.6189 152.79 44.2291 153.997 45.3361C155.406 46.6444 156.438 47.525 157.092 47.9779C157.696 48.3301 158.526 48.783 159.583 49.3365C160.489 49.8397 161.671 50.4687 163.13 51.2235C164.59 51.928 166.451 52.7834 168.716 53.7898H156.111C155.054 53.7898 153.771 53.8402 152.261 53.9408C150.953 54.0414 149.343 54.1421 147.431 54.2427C145.518 54.3434 143.279 54.5195 140.713 54.7711C141.619 54.2176 142.273 53.6892 142.675 53.186C143.128 52.6325 143.43 52.1544 143.581 51.7519C143.782 51.299 143.808 50.8965 143.657 50.5442C143.405 50.041 142.977 49.2862 142.373 48.2798C141.82 47.4244 141.04 46.2167 140.034 44.6568C139.027 43.0969 137.643 41.0338 135.882 38.4675C133.869 40.6312 132.31 42.4427 131.202 43.902C130.146 45.311 129.341 46.4432 128.787 47.2986C128.183 48.305 127.781 49.1101 127.579 49.7139C127.579 50.2675 127.705 50.821 127.957 51.3745C128.208 51.8777 128.611 52.4312 129.165 53.035C129.768 53.6389 130.649 54.2176 131.806 54.7711L109.464 55.7523C111.276 54.4943 112.785 53.3621 113.993 52.3557C115.201 51.299 116.182 50.4184 116.937 49.7139C117.792 48.8585 118.472 48.1037 118.975 47.4496C119.478 46.6948 120.258 45.5877 121.315 44.1284C122.17 42.8704 123.353 41.1847 124.862 39.0713C126.422 36.9579 128.41 34.2406 130.825 30.9195C128.158 26.6423 125.994 23.2457 124.334 20.7297C122.724 18.2138 121.415 16.2764 120.409 14.9178C119.252 13.3579 118.396 12.276 117.843 11.6722C117.339 11.2193 116.635 10.7161 115.729 10.1626C114.974 9.65939 113.993 9.05555 112.785 8.35108C111.578 7.59628 110.093 6.71568 108.332 5.70929Z" stroke="black" stroke-width="3.9254" mask="url(#path-1-outside-1_112_44)"/>
<path d="M192.039 48.6572C193.851 48.4056 195.26 48.7075 196.266 49.563C197.323 50.4184 197.826 51.6009 197.776 53.1105C197.725 53.8653 197.574 54.4692 197.323 54.922C197.071 55.3749 196.719 55.7272 196.266 55.9788C195.863 56.18 195.36 56.3562 194.756 56.5071C194.203 56.6077 193.549 56.7084 192.794 56.809C192.039 56.96 191.309 56.9348 190.605 56.7336C189.9 56.482 189.271 56.1297 188.718 55.6768C188.164 55.224 187.712 54.7208 187.359 54.1672C187.057 53.6137 186.906 53.0602 186.906 52.5067C186.906 51.9029 187.057 51.3997 187.359 50.9971C187.712 50.5442 188.139 50.1668 188.643 49.8649C189.196 49.5127 189.75 49.2611 190.303 49.1101C190.907 48.9088 191.486 48.7579 192.039 48.6572Z" stroke="black" stroke-width="3.9254" mask="url(#path-1-outside-1_112_44)"/>
</g>
<defs>
<filter id="filter0_d_112_44" x="0.152344" y="0.0373535" width="203.515" height="70.3843" filterUnits="userSpaceOnUse" color-interpolation-filters="sRGB">
<feFlood flood-opacity="0" result="BackgroundImageFix"/>
<feColorMatrix in="SourceAlpha" type="matrix" values="0 0 0 0 0 0 0 0 0 0 0 0 0 0 0 0 0 0 127 0" result="hardAlpha"/>
<feOffset dx="3.9254" dy="3.9254"/>
<feComposite in2="hardAlpha" operator="out"/>
<feColorMatrix type="matrix" values="0 0 0 0 0 0 0 0 0 0 0 0 0 0 0 0 0 0 1 0"/>
<feBlend mode="normal" in2="BackgroundImageFix" result="effect1_dropShadow_112_44"/>
<feBlend mode="normal" in="SourceGraphic" in2="effect1_dropShadow_112_44" result="shape"/>
</filter>
<linearGradient id="paint0_linear_112_44" x1="52.4986" y1="17.0483" x2="98.0688" y2="68.5318" gradientUnits="userSpaceOnUse">
<stop stop-color="#F7B4A7"/>
<stop offset="1" stop-color="#94DDDE"/>
</linearGradient>
<linearGradient id="paint1_linear_112_44" x1="52.4986" y1="17.0483" x2="98.0688" y2="68.5318" gradientUnits="userSpaceOnUse">
<stop stop-color="#F7B4A7"/>
<stop offset="1" stop-color="#94DDDE"/>
</linearGradient>
<linearGradient id="paint2_linear_112_44" x1="52.4986" y1="17.0483" x2="98.0688" y2="68.5318" gradientUnits="userSpaceOnUse">
<stop stop-color="#F7B4A7"/>
<stop offset="1" stop-color="#94DDDE"/>
</linearGradient>
<linearGradient id="paint3_linear_112_44" x1="52.4986" y1="17.0483" x2="98.0688" y2="68.5318" gradientUnits="userSpaceOnUse">
<stop stop-color="#F7B4A7"/>
<stop offset="1" stop-color="#94DDDE"/>
</linearGradient>
<linearGradient id="paint4_linear_112_44" x1="52.4986" y1="17.0483" x2="98.0688" y2="68.5318" gradientUnits="userSpaceOnUse">
<stop stop-color="#F7B4A7"/>
<stop offset="1" stop-color="#94DDDE"/>
</linearGradient>
</defs>
</svg>
