<svg width="203" height="68" viewBox="0 0 203 68" fill="none" xmlns="http://www.w3.org/2000/svg">
<path d="M21.8508 10.2964C22.9578 9.69261 24.2158 9.16425 25.6247 8.71137C27.0337 8.20818 28.493 7.83078 30.0026 7.57918C31.5122 7.27726 33.0217 7.10114 34.5313 7.05082C36.0913 7.0005 37.5505 7.1263 38.9092 7.42822C42.8844 8.28366 46.2307 9.91905 48.948 12.3344C51.6652 14.7497 53.7535 17.5677 55.2128 20.7881C56.7224 24.0086 57.603 27.4807 57.8546 31.2043C58.1565 34.8777 57.8546 38.4252 56.9488 41.847C56.6469 42.8534 56.1437 44.0107 55.4392 45.319C54.8354 46.4261 54.0051 47.7847 52.9484 49.3949C51.8917 50.9548 50.5079 52.6909 48.797 54.603C49.1996 55.5088 49.6021 56.2384 50.0047 56.7919C50.4576 57.2951 50.8853 57.6725 51.2878 57.9241C51.7407 58.226 52.1684 58.4273 52.571 58.528C52.9735 58.5783 53.4516 58.6034 54.0051 58.6034C54.458 58.6034 54.9863 58.5783 55.5902 58.528C56.2443 58.4273 56.9488 58.2764 57.7036 58.0751L45.9288 67.8874C45.7778 67.0823 45.6017 66.3778 45.4004 65.774C45.2495 65.2205 45.1237 64.7425 45.023 64.3399L44.5701 63.2077C44.3689 62.9561 44.1676 62.629 43.9663 62.2265C43.765 61.9245 43.5386 61.5471 43.287 61.0943C43.0354 60.6414 42.7083 60.1382 42.3057 59.5847C39.1356 60.7924 36.2422 61.5723 33.6256 61.9245C31.0593 62.2768 28.7194 62.3019 26.606 62C24.4925 61.7484 22.6056 61.2704 20.945 60.5659C19.2844 59.8111 17.8252 58.9557 16.5672 57.9996C13.6486 55.7352 11.3591 52.7663 9.69853 49.093C7.83669 44.061 6.98126 39.4568 7.13222 35.2802C7.3335 31.0534 8.13861 27.3045 9.54757 24.0338C10.9565 20.7126 12.768 17.8947 14.9821 15.58C17.2465 13.2653 19.536 11.5041 21.8508 10.2964ZM33.0217 48.6401C32.267 48.4388 31.5625 48.3634 30.9083 48.4137C30.3548 48.464 29.8013 48.6401 29.2478 48.942C28.6942 49.244 28.2917 49.7975 28.0401 50.6026C28.6942 51.2568 29.2981 51.8103 29.8516 52.2631C30.4554 52.6657 30.9586 52.9928 31.3612 53.2444C31.8644 53.5463 32.3173 53.7979 32.7198 53.9992C33.4243 54.2508 34.1288 54.4521 34.8333 54.603C35.4371 54.7037 36.0913 54.754 36.7957 54.754C37.5505 54.7037 38.255 54.5024 38.9092 54.1501C38.406 53.0934 37.8021 52.2128 37.0977 51.5084C36.4435 50.7536 35.8145 50.1749 35.2107 49.7723C34.5062 49.2691 33.7765 48.8917 33.0217 48.6401ZM25.0209 45.9229C25.8763 44.6145 26.8073 43.6836 27.8137 43.1301C28.82 42.5766 29.7761 42.174 30.6819 41.9224C31.7386 41.7212 32.8205 41.6457 33.9275 41.696C34.9842 41.9476 36.0409 42.3753 37.0977 42.9791C38.0034 43.5327 38.9595 44.3126 39.9659 45.319C40.9723 46.2751 41.9032 47.5834 42.7586 49.244C43.5637 48.0363 44.1676 46.7783 44.5701 45.47C44.9727 44.1617 45.2746 42.9791 45.4759 41.9224C45.6772 40.6644 45.7778 39.4316 45.7778 38.2239C45.6772 36.3621 45.4759 34.3996 45.174 32.3365C44.8721 30.2734 44.4192 28.2355 43.8153 26.2227C43.2618 24.2099 42.5574 22.2977 41.7019 20.4862C40.8465 18.6747 39.8149 17.1148 38.6072 15.8065C37.4499 14.4981 36.0913 13.5169 34.5313 12.8628C33.0217 12.2086 31.3109 12.0325 29.3987 12.3344C27.2853 12.6363 25.5493 13.4918 24.1906 14.9007C22.8823 16.3097 21.8508 17.9702 21.096 19.8824C20.3915 21.7442 19.9386 23.757 19.7373 25.9207C19.5864 28.0342 19.6115 29.9463 19.8128 31.6572C19.9638 33.0662 20.2657 34.5506 20.7186 36.1105C21.1211 37.4188 21.6495 38.9284 22.3036 40.6393C22.9578 42.3502 23.8635 44.1113 25.0209 45.9229Z" fill="url(#paint0_linear_110_33)"/>
<path d="M61.855 27.2794C63.1633 27.531 64.2955 27.7323 65.2516 27.8832C66.258 27.9839 67.1134 28.0845 67.8179 28.1851C68.623 28.2858 69.3275 28.3613 69.9313 28.4116C70.5351 28.4619 71.2396 28.5122 72.0447 28.5625C73.4034 28.6129 75.3155 28.6129 77.7812 28.5625C76.3219 28.4619 75.1646 28.8393 74.3091 29.6947C73.504 30.4998 72.9002 31.4308 72.4976 32.4875C71.9944 33.7455 71.7177 35.2047 71.6673 36.8653C71.5667 39.0794 71.617 41.0922 71.8183 42.9037C72.0699 44.6649 72.4976 46.1745 73.1015 47.4324C73.7556 48.6401 74.611 49.5459 75.6678 50.1497C76.7245 50.7032 78.0831 50.8542 79.7437 50.6026C81.4042 50.351 82.6622 49.7723 83.5177 48.8666C84.4234 47.9105 85.0776 46.7531 85.4801 45.3945C85.8827 43.9855 86.1091 42.4005 86.1594 40.6393C86.2601 38.8781 86.3356 37.0414 86.3859 35.1293C86.3859 33.2171 86.3607 31.8585 86.3104 31.0534C86.3104 30.1979 86.2852 29.6444 86.2349 29.3928C86.1846 29.1412 86.1091 29.0406 86.0085 29.0909C85.9078 29.0909 85.782 28.9651 85.6311 28.7135C85.5304 28.5122 85.3795 28.3109 85.1782 28.1097C85.0272 27.9084 84.826 27.6819 84.5744 27.4303C84.3228 27.1284 84.046 26.8265 83.7441 26.5246C85.0524 26.5749 86.2098 26.6252 87.2162 26.6755C88.2729 26.6755 89.1535 26.7007 89.8579 26.751C90.6631 26.8013 91.3675 26.8517 91.9714 26.902C92.5249 26.9523 93.2545 27.0278 94.1603 27.1284C94.9151 27.2291 95.8963 27.3297 97.104 27.4303C98.3117 27.531 99.7458 27.6819 101.406 27.8832C100.249 28.1348 99.3181 28.5122 98.6136 29.0154C97.9091 29.5186 97.3556 30.0218 96.953 30.525C96.5002 31.0785 96.1731 31.6824 95.9718 32.3365C95.8208 33.1919 95.8208 34.5003 95.9718 36.2615C96.0724 37.8214 96.324 39.96 96.7266 42.6772C97.1292 45.3945 97.7581 48.9672 98.6136 53.3953L92.6507 56.9429L91.443 46.9041C89.9837 49.3698 88.4238 51.2819 86.7633 52.6405C85.153 53.9489 83.6434 54.9049 82.2345 55.5088C80.5739 56.2132 78.9637 56.6158 77.4038 56.7164C75.3407 56.7164 73.5543 56.5906 72.0447 56.3391C70.5855 56.0371 69.3275 55.6597 68.2708 55.2069C67.214 54.754 66.3586 54.2508 65.7044 53.6973C65.1006 53.0934 64.6477 52.4896 64.3458 51.8857C63.6413 50.6278 63.2639 49.0175 63.2136 47.055C63.1633 45.0423 63.2388 43.0546 63.4401 41.0922C63.6413 39.0794 63.8678 37.2427 64.1194 35.5821C64.371 33.9216 64.4465 32.7894 64.3458 32.1856C64.2452 31.7327 64.0942 31.2295 63.8929 30.676C63.6917 30.2231 63.4401 29.7199 63.1381 29.1664C62.8362 28.5625 62.4085 27.9335 61.855 27.2794Z" fill="url(#paint1_linear_110_33)"/>
<path d="M102.539 28.2606L116.427 28.4116C115.622 31.4811 115.018 34.0977 114.615 36.2615C114.263 38.4252 114.037 40.2367 113.936 41.696C113.735 43.3565 113.684 44.7655 113.785 45.9229C113.936 46.9796 114.188 48.1118 114.54 49.3194C114.842 50.3258 115.295 51.4832 115.898 52.7915C116.502 54.0998 117.307 55.4081 118.314 56.7164C117.71 56.5152 117.056 56.3642 116.351 56.2636C115.647 56.1629 114.993 56.0875 114.389 56.0371C113.684 55.9868 112.98 55.9868 112.275 56.0371C111.571 56.0875 110.791 56.1629 109.936 56.2636C109.231 56.3642 108.376 56.49 107.369 56.641C106.363 56.7919 105.306 56.9932 104.199 57.2448C104.954 54.9804 105.533 53.0179 105.935 51.3574C106.388 49.6968 106.715 48.313 106.916 47.206C107.118 45.8977 107.243 44.841 107.294 44.0359C107.294 43.0295 107.294 41.8973 107.294 40.6393C107.294 39.331 107.294 38.073 107.294 36.8653C107.294 35.6576 107.269 34.6009 107.218 33.6951C107.168 32.7391 107.067 32.1352 106.916 31.8836L106.162 31.1288C105.86 30.8772 105.407 30.525 104.803 30.0721C104.249 29.5689 103.495 28.9651 102.539 28.2606ZM107.898 16.6367C108.954 16.0832 110.011 15.9323 111.068 16.1839C112.175 16.4355 113.03 16.9135 113.634 17.618C114.238 18.3225 114.439 19.1527 114.238 20.1088C114.087 21.0649 113.282 21.9958 111.823 22.9016C110.363 23.757 109.08 24.0589 107.973 23.8073C106.866 23.5557 106.086 23.0274 105.633 22.2222C105.18 21.4171 105.105 20.4862 105.407 19.4295C105.709 18.3225 106.539 17.3915 107.898 16.6367Z" fill="url(#paint2_linear_110_33)"/>
<path d="M113.332 10.7493C115.546 10.85 117.433 10.9254 118.993 10.9758C120.553 11.0261 121.836 11.0764 122.843 11.1267C124.05 11.177 125.031 11.2274 125.786 11.2777C126.591 11.328 127.598 11.3532 128.805 11.3532C130.869 11.3532 133.787 11.2022 137.561 10.9003C136.756 11.3028 136.127 11.7557 135.674 12.2589C135.221 12.7118 134.869 13.1647 134.617 13.6176C134.315 14.1711 134.089 14.6994 133.938 15.2026C133.837 15.8065 134.064 16.7374 134.617 17.9954C135.02 19.0521 135.75 20.4862 136.806 22.2977C137.863 24.1092 139.423 26.4491 141.486 29.3173C143.952 25.6943 145.864 22.8512 147.223 20.7881C148.581 18.725 149.588 17.1651 150.242 16.1084C150.996 14.8504 151.449 14.0201 151.6 13.6176C151.55 13.366 151.349 13.0137 150.996 12.5608C150.695 12.1583 150.191 11.6802 149.487 11.1267C148.833 10.5229 147.852 9.79325 146.543 8.93781C148.606 9.23973 150.317 9.46617 151.676 9.61713C153.085 9.76809 154.217 9.86873 155.072 9.91905C156.079 9.96937 156.909 9.96937 157.563 9.91905C158.217 9.86873 159.173 9.81841 160.431 9.76809C161.488 9.71777 162.897 9.66745 164.658 9.61713C166.47 9.56681 168.785 9.49133 171.602 9.39069C170.495 9.94421 169.539 10.4726 168.734 10.9758C167.929 11.479 167.25 11.9318 166.696 12.3344C166.042 12.8376 165.463 13.2653 164.96 13.6176C164.356 14.2214 163.249 15.4542 161.639 17.3161C160.28 18.9263 158.343 21.2913 155.827 24.4111C153.311 27.4807 149.94 31.6572 145.713 36.9408C149.135 40.5638 151.902 43.432 154.016 45.5455C156.129 47.6589 157.79 49.2691 158.997 50.3762C160.406 51.6845 161.438 52.5651 162.092 53.0179C162.696 53.3702 163.526 53.8231 164.583 54.3766C165.489 54.8798 166.671 55.5088 168.13 56.2636C169.59 56.968 171.451 57.8235 173.716 58.8299H161.111C160.054 58.8299 158.771 58.8802 157.261 58.9808C155.953 59.0815 154.343 59.1821 152.431 59.2828C150.518 59.3834 148.279 59.5595 145.713 59.8111C146.619 59.2576 147.273 58.7292 147.675 58.226C148.128 57.6725 148.43 57.1945 148.581 56.7919C148.782 56.3391 148.808 55.9365 148.657 55.5843C148.405 55.0811 147.977 54.3263 147.373 53.3199C146.82 52.4644 146.04 51.2568 145.034 49.6968C144.027 48.1369 142.643 46.0738 140.882 43.5075C138.869 45.6713 137.31 47.4828 136.202 48.942C135.146 50.351 134.341 51.4832 133.787 52.3386C133.183 53.345 132.781 54.1501 132.579 54.754C132.579 55.3075 132.705 55.861 132.957 56.4145C133.208 56.9177 133.611 57.4712 134.165 58.0751C134.768 58.6789 135.649 59.2576 136.806 59.8111L114.464 60.7924C116.276 59.5344 117.785 58.4022 118.993 57.3958C120.201 56.3391 121.182 55.4585 121.937 54.754C122.792 53.8985 123.472 53.1437 123.975 52.4896C124.478 51.7348 125.258 50.6278 126.315 49.1685C127.17 47.9105 128.353 46.2248 129.862 44.1113C131.422 41.9979 133.41 39.2806 135.825 35.9595C133.158 31.6824 130.994 28.2858 129.334 25.7698C127.724 23.2538 126.415 21.3165 125.409 19.9578C124.252 18.3979 123.396 17.3161 122.843 16.7122C122.339 16.2593 121.635 15.7561 120.729 15.2026C119.974 14.6994 118.993 14.0956 117.785 13.3911C116.578 12.6363 115.093 11.7557 113.332 10.7493Z" fill="url(#paint3_linear_110_33)"/>
<path d="M197.039 53.6973C198.851 53.4457 200.26 53.7476 201.266 54.603C202.323 55.4585 202.826 56.641 202.776 58.1506C202.725 58.9054 202.574 59.5092 202.323 59.9621C202.071 60.415 201.719 60.7672 201.266 61.0188C200.863 61.2201 200.36 61.3962 199.756 61.5471C199.203 61.6478 198.549 61.7484 197.794 61.8491C197.039 62 196.309 61.9749 195.605 61.7736C194.9 61.522 194.271 61.1698 193.718 60.7169C193.164 60.264 192.712 59.7608 192.359 59.2073C192.057 58.6538 191.906 58.1002 191.906 57.5467C191.906 56.9429 192.057 56.4397 192.359 56.0371C192.712 55.5843 193.139 55.2069 193.643 54.9049C194.196 54.5527 194.75 54.3011 195.303 54.1501C195.907 53.9489 196.486 53.7979 197.039 53.6973Z" fill="url(#paint4_linear_110_33)"/>
<mask id="path-2-outside-1_110_33" maskUnits="userSpaceOnUse" x="0.115234" y="0.0400391" width="200" height="67" fill="black">
<rect fill="white" x="0.115234" y="0.0400391" width="200" height="67"/>
<path d="M16.8508 5.29645C17.9578 4.69261 19.2158 4.16425 20.6247 3.71137C22.0337 3.20818 23.493 2.83078 25.0026 2.57918C26.5122 2.27726 28.0217 2.10114 29.5313 2.05082C31.0913 2.0005 32.5505 2.1263 33.9092 2.42822C37.8844 3.28366 41.2307 4.91905 43.948 7.3344C46.6652 9.74975 48.7535 12.5677 50.2128 15.7881C51.7224 19.0086 52.603 22.4807 52.8546 26.2043C53.1565 29.8777 52.8546 33.4252 51.9488 36.847C51.6469 37.8534 51.1437 39.0107 50.4392 40.319C49.8354 41.4261 49.0051 42.7847 47.9484 44.3949C46.8917 45.9548 45.5079 47.6909 43.797 49.603C44.1996 50.5088 44.6021 51.2384 45.0047 51.7919C45.4576 52.2951 45.8853 52.6725 46.2878 52.9241C46.7407 53.226 47.1684 53.4273 47.571 53.528C47.9735 53.5783 48.4516 53.6034 49.0051 53.6034C49.458 53.6034 49.9863 53.5783 50.5902 53.528C51.2443 53.4273 51.9488 53.2764 52.7036 53.0751L40.9288 62.8874C40.7778 62.0823 40.6017 61.3778 40.4004 60.774C40.2495 60.2205 40.1237 59.7425 40.023 59.3399L39.5701 58.2077C39.3689 57.9561 39.1676 57.629 38.9663 57.2265C38.765 56.9245 38.5386 56.5471 38.287 56.0943C38.0354 55.6414 37.7083 55.1382 37.3057 54.5847C34.1356 55.7924 31.2422 56.5723 28.6256 56.9245C26.0593 57.2768 23.7194 57.3019 21.606 57C19.4925 56.7484 17.6056 56.2704 15.945 55.5659C14.2844 54.8111 12.8252 53.9557 11.5672 52.9996C8.64863 50.7352 6.35908 47.7663 4.69853 44.093C2.83669 39.061 1.98126 34.4568 2.13222 30.2802C2.3335 26.0534 3.13861 22.3045 4.54757 19.0338C5.95652 15.7126 7.76803 12.8947 9.9821 10.58C12.2465 8.26532 14.536 6.50412 16.8508 5.29645ZM28.0217 43.6401C27.267 43.4388 26.5625 43.3634 25.9083 43.4137C25.3548 43.464 24.8013 43.6401 24.2478 43.942C23.6942 44.244 23.2917 44.7975 23.0401 45.6026C23.6942 46.2568 24.2981 46.8103 24.8516 47.2631C25.4554 47.6657 25.9586 47.9928 26.3612 48.2444C26.8644 48.5463 27.3173 48.7979 27.7198 48.9992C28.4243 49.2508 29.1288 49.4521 29.8333 49.603C30.4371 49.7037 31.0913 49.754 31.7957 49.754C32.5505 49.7037 33.255 49.5024 33.9092 49.1501C33.406 48.0934 32.8021 47.2128 32.0977 46.5084C31.4435 45.7536 30.8145 45.1749 30.2107 44.7723C29.5062 44.2691 28.7765 43.8917 28.0217 43.6401ZM20.0209 40.9229C20.8763 39.6145 21.8073 38.6836 22.8137 38.1301C23.82 37.5766 24.7761 37.174 25.6819 36.9224C26.7386 36.7212 27.8205 36.6457 28.9275 36.696C29.9842 36.9476 31.0409 37.3753 32.0977 37.9791C33.0034 38.5327 33.9595 39.3126 34.9659 40.319C35.9723 41.2751 36.9032 42.5834 37.7586 44.244C38.5637 43.0363 39.1676 41.7783 39.5701 40.47C39.9727 39.1617 40.2746 37.9791 40.4759 36.9224C40.6772 35.6644 40.7778 34.4316 40.7778 33.2239C40.6772 31.3621 40.4759 29.3996 40.174 27.3365C39.8721 25.2734 39.4192 23.2355 38.8153 21.2227C38.2618 19.2099 37.5574 17.2977 36.7019 15.4862C35.8465 13.6747 34.8149 12.1148 33.6072 10.8065C32.4499 9.49815 31.0913 8.51691 29.5313 7.86276C28.0217 7.2086 26.3109 7.03248 24.3987 7.3344C22.2853 7.63632 20.5493 8.49175 19.1906 9.90071C17.8823 11.3097 16.8508 12.9702 16.096 14.8824C15.3915 16.7442 14.9386 18.757 14.7373 20.9207C14.5864 23.0342 14.6115 24.9463 14.8128 26.6572C14.9638 28.0662 15.2657 29.5506 15.7186 31.1105C16.1211 32.4188 16.6495 33.9284 17.3036 35.6393C17.9578 37.3502 18.8635 39.1113 20.0209 40.9229Z"/>
<path d="M56.855 22.2794C58.1633 22.531 59.2955 22.7323 60.2516 22.8832C61.258 22.9839 62.1134 23.0845 62.8179 23.1851C63.623 23.2858 64.3275 23.3613 64.9313 23.4116C65.5351 23.4619 66.2396 23.5122 67.0447 23.5625C68.4034 23.6129 70.3155 23.6129 72.7812 23.5625C71.3219 23.4619 70.1646 23.8393 69.3091 24.6947C68.504 25.4998 67.9002 26.4308 67.4976 27.4875C66.9944 28.7455 66.7177 30.2047 66.6673 31.8653C66.5667 34.0794 66.617 36.0922 66.8183 37.9037C67.0699 39.6649 67.4976 41.1745 68.1015 42.4324C68.7556 43.6401 69.611 44.5459 70.6678 45.1497C71.7245 45.7032 73.0831 45.8542 74.7437 45.6026C76.4042 45.351 77.6622 44.7723 78.5177 43.8666C79.4234 42.9105 80.0776 41.7531 80.4801 40.3945C80.8827 38.9855 81.1091 37.4005 81.1594 35.6393C81.2601 33.8781 81.3356 32.0414 81.3859 30.1293C81.3859 28.2171 81.3607 26.8585 81.3104 26.0534C81.3104 25.1979 81.2852 24.6444 81.2349 24.3928C81.1846 24.1412 81.1091 24.0406 81.0085 24.0909C80.9078 24.0909 80.782 23.9651 80.6311 23.7135C80.5304 23.5122 80.3795 23.3109 80.1782 23.1097C80.0272 22.9084 79.826 22.6819 79.5744 22.4303C79.3228 22.1284 79.046 21.8265 78.7441 21.5246C80.0524 21.5749 81.2098 21.6252 82.2162 21.6755C83.2729 21.6755 84.1535 21.7007 84.8579 21.751C85.6631 21.8013 86.3675 21.8517 86.9714 21.902C87.5249 21.9523 88.2545 22.0278 89.1603 22.1284C89.9151 22.2291 90.8963 22.3297 92.104 22.4303C93.3117 22.531 94.7458 22.6819 96.4063 22.8832C95.249 23.1348 94.3181 23.5122 93.6136 24.0154C92.9091 24.5186 92.3556 25.0218 91.953 25.525C91.5002 26.0785 91.1731 26.6824 90.9718 27.3365C90.8208 28.1919 90.8208 29.5003 90.9718 31.2615C91.0724 32.8214 91.324 34.96 91.7266 37.6772C92.1292 40.3945 92.7581 43.9672 93.6136 48.3953L87.6507 51.9429L86.443 41.9041C84.9837 44.3698 83.4238 46.2819 81.7633 47.6405C80.153 48.9489 78.6434 49.9049 77.2345 50.5088C75.5739 51.2132 73.9637 51.6158 72.4038 51.7164C70.3407 51.7164 68.5543 51.5906 67.0447 51.3391C65.5855 51.0371 64.3275 50.6597 63.2708 50.2069C62.214 49.754 61.3586 49.2508 60.7044 48.6973C60.1006 48.0934 59.6477 47.4896 59.3458 46.8857C58.6413 45.6278 58.2639 44.0175 58.2136 42.055C58.1633 40.0423 58.2388 38.0546 58.4401 36.0922C58.6413 34.0794 58.8678 32.2427 59.1194 30.5821C59.371 28.9216 59.4465 27.7894 59.3458 27.1856C59.2452 26.7327 59.0942 26.2295 58.8929 25.676C58.6917 25.2231 58.4401 24.7199 58.1381 24.1664C57.8362 23.5625 57.4085 22.9335 56.855 22.2794Z"/>
<path d="M97.5385 23.2606L111.427 23.4116C110.622 26.4811 110.018 29.0977 109.615 31.2615C109.263 33.4252 109.037 35.2367 108.936 36.696C108.735 38.3565 108.684 39.7655 108.785 40.9229C108.936 41.9796 109.188 43.1118 109.54 44.3194C109.842 45.3258 110.295 46.4832 110.898 47.7915C111.502 49.0998 112.307 50.4081 113.314 51.7164C112.71 51.5152 112.056 51.3642 111.351 51.2636C110.647 51.1629 109.993 51.0875 109.389 51.0371C108.684 50.9868 107.98 50.9868 107.275 51.0371C106.571 51.0875 105.791 51.1629 104.936 51.2636C104.231 51.3642 103.376 51.49 102.369 51.641C101.363 51.7919 100.306 51.9932 99.1991 52.2448C99.9539 49.9804 100.533 48.0179 100.935 46.3574C101.388 44.6968 101.715 43.313 101.916 42.206C102.118 40.8977 102.243 39.841 102.294 39.0359C102.294 38.0295 102.294 36.8973 102.294 35.6393C102.294 34.331 102.294 33.073 102.294 31.8653C102.294 30.6576 102.269 29.6009 102.218 28.6951C102.168 27.7391 102.067 27.1352 101.916 26.8836L101.162 26.1288C100.86 25.8772 100.407 25.525 99.8029 25.0721C99.2494 24.5689 98.4946 23.9651 97.5385 23.2606ZM102.898 11.6367C103.954 11.0832 105.011 10.9323 106.068 11.1839C107.175 11.4355 108.03 11.9135 108.634 12.618C109.238 13.3225 109.439 14.1527 109.238 15.1088C109.087 16.0649 108.282 16.9958 106.823 17.9016C105.363 18.757 104.08 19.0589 102.973 18.8073C101.866 18.5557 101.086 18.0274 100.633 17.2222C100.18 16.4171 100.105 15.4862 100.407 14.4295C100.709 13.3225 101.539 12.3915 102.898 11.6367Z"/>
<path d="M108.332 5.74933C110.546 5.84997 112.433 5.92545 113.993 5.97577C115.553 6.02608 116.836 6.07641 117.843 6.12672C119.05 6.17704 120.031 6.22736 120.786 6.27768C121.591 6.328 122.598 6.35316 123.805 6.35316C125.869 6.35316 128.787 6.2022 132.561 5.90029C131.756 6.30284 131.127 6.75572 130.674 7.25892C130.221 7.7118 129.869 8.16468 129.617 8.61755C129.315 9.17107 129.089 9.69943 128.938 10.2026C128.837 10.8065 129.064 11.7374 129.617 12.9954C130.02 14.0521 130.75 15.4862 131.806 17.2977C132.863 19.1092 134.423 21.4491 136.486 24.3173C138.952 20.6943 140.864 17.8512 142.223 15.7881C143.581 13.725 144.588 12.1651 145.242 11.1084C145.996 9.85039 146.449 9.02011 146.6 8.61755C146.55 8.36595 146.349 8.01372 145.996 7.56084C145.695 7.15828 145.191 6.68024 144.487 6.12672C143.833 5.52289 142.852 4.79325 141.543 3.93781C143.606 4.23973 145.317 4.46617 146.676 4.61713C148.085 4.76809 149.217 4.86873 150.072 4.91905C151.079 4.96937 151.909 4.96937 152.563 4.91905C153.217 4.86873 154.173 4.81841 155.431 4.76809C156.488 4.71777 157.897 4.66745 159.658 4.61713C161.47 4.56681 163.785 4.49133 166.602 4.39069C165.495 4.94421 164.539 5.47257 163.734 5.97577C162.929 6.47896 162.25 6.93184 161.696 7.3344C161.042 7.8376 160.463 8.26532 159.96 8.61755C159.356 9.22139 158.249 10.4542 156.639 12.3161C155.28 13.9263 153.343 16.2913 150.827 19.4111C148.311 22.4807 144.94 26.6572 140.713 31.9408C144.135 35.5638 146.902 38.432 149.016 40.5455C151.129 42.6589 152.79 44.2691 153.997 45.3762C155.406 46.6845 156.438 47.5651 157.092 48.0179C157.696 48.3702 158.526 48.8231 159.583 49.3766C160.489 49.8798 161.671 50.5088 163.13 51.2636C164.59 51.968 166.451 52.8235 168.716 53.8299H156.111C155.054 53.8299 153.771 53.8802 152.261 53.9808C150.953 54.0815 149.343 54.1821 147.431 54.2828C145.518 54.3834 143.279 54.5595 140.713 54.8111C141.619 54.2576 142.273 53.7292 142.675 53.226C143.128 52.6725 143.43 52.1945 143.581 51.7919C143.782 51.3391 143.808 50.9365 143.657 50.5843C143.405 50.0811 142.977 49.3263 142.373 48.3199C141.82 47.4644 141.04 46.2568 140.034 44.6968C139.027 43.1369 137.643 41.0738 135.882 38.5075C133.869 40.6713 132.31 42.4828 131.202 43.942C130.146 45.351 129.341 46.4832 128.787 47.3386C128.183 48.345 127.781 49.1501 127.579 49.754C127.579 50.3075 127.705 50.861 127.957 51.4145C128.208 51.9177 128.611 52.4712 129.165 53.0751C129.768 53.6789 130.649 54.2576 131.806 54.8111L109.464 55.7924C111.276 54.5344 112.785 53.4022 113.993 52.3958C115.201 51.3391 116.182 50.4585 116.937 49.754C117.792 48.8985 118.472 48.1437 118.975 47.4896C119.478 46.7348 120.258 45.6278 121.315 44.1685C122.17 42.9105 123.353 41.2248 124.862 39.1113C126.422 36.9979 128.41 34.2806 130.825 30.9595C128.158 26.6824 125.994 23.2858 124.334 20.7698C122.724 18.2538 121.415 16.3165 120.409 14.9578C119.252 13.3979 118.396 12.3161 117.843 11.7122C117.339 11.2593 116.635 10.7561 115.729 10.2026C114.974 9.69943 113.993 9.09559 112.785 8.39111C111.578 7.63632 110.093 6.75572 108.332 5.74933Z"/>
<path d="M192.039 48.6973C193.851 48.4457 195.26 48.7476 196.266 49.603C197.323 50.4585 197.826 51.641 197.776 53.1506C197.725 53.9054 197.574 54.5092 197.323 54.9621C197.071 55.415 196.719 55.7672 196.266 56.0188C195.863 56.2201 195.36 56.3962 194.756 56.5471C194.203 56.6478 193.549 56.7484 192.794 56.8491C192.039 57 191.309 56.9749 190.605 56.7736C189.9 56.522 189.271 56.1698 188.718 55.7169C188.164 55.264 187.712 54.7608 187.359 54.2073C187.057 53.6538 186.906 53.1002 186.906 52.5467C186.906 51.9429 187.057 51.4397 187.359 51.0371C187.712 50.5843 188.139 50.2069 188.643 49.9049C189.196 49.5527 189.75 49.3011 190.303 49.1501C190.907 48.9489 191.486 48.7979 192.039 48.6973Z"/>
</mask>
<path d="M16.8508 5.29645C17.9578 4.69261 19.2158 4.16425 20.6247 3.71137C22.0337 3.20818 23.493 2.83078 25.0026 2.57918C26.5122 2.27726 28.0217 2.10114 29.5313 2.05082C31.0913 2.0005 32.5505 2.1263 33.9092 2.42822C37.8844 3.28366 41.2307 4.91905 43.948 7.3344C46.6652 9.74975 48.7535 12.5677 50.2128 15.7881C51.7224 19.0086 52.603 22.4807 52.8546 26.2043C53.1565 29.8777 52.8546 33.4252 51.9488 36.847C51.6469 37.8534 51.1437 39.0107 50.4392 40.319C49.8354 41.4261 49.0051 42.7847 47.9484 44.3949C46.8917 45.9548 45.5079 47.6909 43.797 49.603C44.1996 50.5088 44.6021 51.2384 45.0047 51.7919C45.4576 52.2951 45.8853 52.6725 46.2878 52.9241C46.7407 53.226 47.1684 53.4273 47.571 53.528C47.9735 53.5783 48.4516 53.6034 49.0051 53.6034C49.458 53.6034 49.9863 53.5783 50.5902 53.528C51.2443 53.4273 51.9488 53.2764 52.7036 53.0751L40.9288 62.8874C40.7778 62.0823 40.6017 61.3778 40.4004 60.774C40.2495 60.2205 40.1237 59.7425 40.023 59.3399L39.5701 58.2077C39.3689 57.9561 39.1676 57.629 38.9663 57.2265C38.765 56.9245 38.5386 56.5471 38.287 56.0943C38.0354 55.6414 37.7083 55.1382 37.3057 54.5847C34.1356 55.7924 31.2422 56.5723 28.6256 56.9245C26.0593 57.2768 23.7194 57.3019 21.606 57C19.4925 56.7484 17.6056 56.2704 15.945 55.5659C14.2844 54.8111 12.8252 53.9557 11.5672 52.9996C8.64863 50.7352 6.35908 47.7663 4.69853 44.093C2.83669 39.061 1.98126 34.4568 2.13222 30.2802C2.3335 26.0534 3.13861 22.3045 4.54757 19.0338C5.95652 15.7126 7.76803 12.8947 9.9821 10.58C12.2465 8.26532 14.536 6.50412 16.8508 5.29645ZM28.0217 43.6401C27.267 43.4388 26.5625 43.3634 25.9083 43.4137C25.3548 43.464 24.8013 43.6401 24.2478 43.942C23.6942 44.244 23.2917 44.7975 23.0401 45.6026C23.6942 46.2568 24.2981 46.8103 24.8516 47.2631C25.4554 47.6657 25.9586 47.9928 26.3612 48.2444C26.8644 48.5463 27.3173 48.7979 27.7198 48.9992C28.4243 49.2508 29.1288 49.4521 29.8333 49.603C30.4371 49.7037 31.0913 49.754 31.7957 49.754C32.5505 49.7037 33.255 49.5024 33.9092 49.1501C33.406 48.0934 32.8021 47.2128 32.0977 46.5084C31.4435 45.7536 30.8145 45.1749 30.2107 44.7723C29.5062 44.2691 28.7765 43.8917 28.0217 43.6401ZM20.0209 40.9229C20.8763 39.6145 21.8073 38.6836 22.8137 38.1301C23.82 37.5766 24.7761 37.174 25.6819 36.9224C26.7386 36.7212 27.8205 36.6457 28.9275 36.696C29.9842 36.9476 31.0409 37.3753 32.0977 37.9791C33.0034 38.5327 33.9595 39.3126 34.9659 40.319C35.9723 41.2751 36.9032 42.5834 37.7586 44.244C38.5637 43.0363 39.1676 41.7783 39.5701 40.47C39.9727 39.1617 40.2746 37.9791 40.4759 36.9224C40.6772 35.6644 40.7778 34.4316 40.7778 33.2239C40.6772 31.3621 40.4759 29.3996 40.174 27.3365C39.8721 25.2734 39.4192 23.2355 38.8153 21.2227C38.2618 19.2099 37.5574 17.2977 36.7019 15.4862C35.8465 13.6747 34.8149 12.1148 33.6072 10.8065C32.4499 9.49815 31.0913 8.51691 29.5313 7.86276C28.0217 7.2086 26.3109 7.03248 24.3987 7.3344C22.2853 7.63632 20.5493 8.49175 19.1906 9.90071C17.8823 11.3097 16.8508 12.9702 16.096 14.8824C15.3915 16.7442 14.9386 18.757 14.7373 20.9207C14.5864 23.0342 14.6115 24.9463 14.8128 26.6572C14.9638 28.0662 15.2657 29.5506 15.7186 31.1105C16.1211 32.4188 16.6495 33.9284 17.3036 35.6393C17.9578 37.3502 18.8635 39.1113 20.0209 40.9229Z" fill="white"/>
<path d="M56.855 22.2794C58.1633 22.531 59.2955 22.7323 60.2516 22.8832C61.258 22.9839 62.1134 23.0845 62.8179 23.1851C63.623 23.2858 64.3275 23.3613 64.9313 23.4116C65.5351 23.4619 66.2396 23.5122 67.0447 23.5625C68.4034 23.6129 70.3155 23.6129 72.7812 23.5625C71.3219 23.4619 70.1646 23.8393 69.3091 24.6947C68.504 25.4998 67.9002 26.4308 67.4976 27.4875C66.9944 28.7455 66.7177 30.2047 66.6673 31.8653C66.5667 34.0794 66.617 36.0922 66.8183 37.9037C67.0699 39.6649 67.4976 41.1745 68.1015 42.4324C68.7556 43.6401 69.611 44.5459 70.6678 45.1497C71.7245 45.7032 73.0831 45.8542 74.7437 45.6026C76.4042 45.351 77.6622 44.7723 78.5177 43.8666C79.4234 42.9105 80.0776 41.7531 80.4801 40.3945C80.8827 38.9855 81.1091 37.4005 81.1594 35.6393C81.2601 33.8781 81.3356 32.0414 81.3859 30.1293C81.3859 28.2171 81.3607 26.8585 81.3104 26.0534C81.3104 25.1979 81.2852 24.6444 81.2349 24.3928C81.1846 24.1412 81.1091 24.0406 81.0085 24.0909C80.9078 24.0909 80.782 23.9651 80.6311 23.7135C80.5304 23.5122 80.3795 23.3109 80.1782 23.1097C80.0272 22.9084 79.826 22.6819 79.5744 22.4303C79.3228 22.1284 79.046 21.8265 78.7441 21.5246C80.0524 21.5749 81.2098 21.6252 82.2162 21.6755C83.2729 21.6755 84.1535 21.7007 84.8579 21.751C85.6631 21.8013 86.3675 21.8517 86.9714 21.902C87.5249 21.9523 88.2545 22.0278 89.1603 22.1284C89.9151 22.2291 90.8963 22.3297 92.104 22.4303C93.3117 22.531 94.7458 22.6819 96.4063 22.8832C95.249 23.1348 94.3181 23.5122 93.6136 24.0154C92.9091 24.5186 92.3556 25.0218 91.953 25.525C91.5002 26.0785 91.1731 26.6824 90.9718 27.3365C90.8208 28.1919 90.8208 29.5003 90.9718 31.2615C91.0724 32.8214 91.324 34.96 91.7266 37.6772C92.1292 40.3945 92.7581 43.9672 93.6136 48.3953L87.6507 51.9429L86.443 41.9041C84.9837 44.3698 83.4238 46.2819 81.7633 47.6405C80.153 48.9489 78.6434 49.9049 77.2345 50.5088C75.5739 51.2132 73.9637 51.6158 72.4038 51.7164C70.3407 51.7164 68.5543 51.5906 67.0447 51.3391C65.5855 51.0371 64.3275 50.6597 63.2708 50.2069C62.214 49.754 61.3586 49.2508 60.7044 48.6973C60.1006 48.0934 59.6477 47.4896 59.3458 46.8857C58.6413 45.6278 58.2639 44.0175 58.2136 42.055C58.1633 40.0423 58.2388 38.0546 58.4401 36.0922C58.6413 34.0794 58.8678 32.2427 59.1194 30.5821C59.371 28.9216 59.4465 27.7894 59.3458 27.1856C59.2452 26.7327 59.0942 26.2295 58.8929 25.676C58.6917 25.2231 58.4401 24.7199 58.1381 24.1664C57.8362 23.5625 57.4085 22.9335 56.855 22.2794Z" fill="white"/>
<path d="M97.5385 23.2606L111.427 23.4116C110.622 26.4811 110.018 29.0977 109.615 31.2615C109.263 33.4252 109.037 35.2367 108.936 36.696C108.735 38.3565 108.684 39.7655 108.785 40.9229C108.936 41.9796 109.188 43.1118 109.54 44.3194C109.842 45.3258 110.295 46.4832 110.898 47.7915C111.502 49.0998 112.307 50.4081 113.314 51.7164C112.71 51.5152 112.056 51.3642 111.351 51.2636C110.647 51.1629 109.993 51.0875 109.389 51.0371C108.684 50.9868 107.98 50.9868 107.275 51.0371C106.571 51.0875 105.791 51.1629 104.936 51.2636C104.231 51.3642 103.376 51.49 102.369 51.641C101.363 51.7919 100.306 51.9932 99.1991 52.2448C99.9539 49.9804 100.533 48.0179 100.935 46.3574C101.388 44.6968 101.715 43.313 101.916 42.206C102.118 40.8977 102.243 39.841 102.294 39.0359C102.294 38.0295 102.294 36.8973 102.294 35.6393C102.294 34.331 102.294 33.073 102.294 31.8653C102.294 30.6576 102.269 29.6009 102.218 28.6951C102.168 27.7391 102.067 27.1352 101.916 26.8836L101.162 26.1288C100.86 25.8772 100.407 25.525 99.8029 25.0721C99.2494 24.5689 98.4946 23.9651 97.5385 23.2606ZM102.898 11.6367C103.954 11.0832 105.011 10.9323 106.068 11.1839C107.175 11.4355 108.03 11.9135 108.634 12.618C109.238 13.3225 109.439 14.1527 109.238 15.1088C109.087 16.0649 108.282 16.9958 106.823 17.9016C105.363 18.757 104.08 19.0589 102.973 18.8073C101.866 18.5557 101.086 18.0274 100.633 17.2222C100.18 16.4171 100.105 15.4862 100.407 14.4295C100.709 13.3225 101.539 12.3915 102.898 11.6367Z" fill="white"/>
<path d="M108.332 5.74933C110.546 5.84997 112.433 5.92545 113.993 5.97577C115.553 6.02608 116.836 6.07641 117.843 6.12672C119.05 6.17704 120.031 6.22736 120.786 6.27768C121.591 6.328 122.598 6.35316 123.805 6.35316C125.869 6.35316 128.787 6.2022 132.561 5.90029C131.756 6.30284 131.127 6.75572 130.674 7.25892C130.221 7.7118 129.869 8.16468 129.617 8.61755C129.315 9.17107 129.089 9.69943 128.938 10.2026C128.837 10.8065 129.064 11.7374 129.617 12.9954C130.02 14.0521 130.75 15.4862 131.806 17.2977C132.863 19.1092 134.423 21.4491 136.486 24.3173C138.952 20.6943 140.864 17.8512 142.223 15.7881C143.581 13.725 144.588 12.1651 145.242 11.1084C145.996 9.85039 146.449 9.02011 146.6 8.61755C146.55 8.36595 146.349 8.01372 145.996 7.56084C145.695 7.15828 145.191 6.68024 144.487 6.12672C143.833 5.52289 142.852 4.79325 141.543 3.93781C143.606 4.23973 145.317 4.46617 146.676 4.61713C148.085 4.76809 149.217 4.86873 150.072 4.91905C151.079 4.96937 151.909 4.96937 152.563 4.91905C153.217 4.86873 154.173 4.81841 155.431 4.76809C156.488 4.71777 157.897 4.66745 159.658 4.61713C161.47 4.56681 163.785 4.49133 166.602 4.39069C165.495 4.94421 164.539 5.47257 163.734 5.97577C162.929 6.47896 162.25 6.93184 161.696 7.3344C161.042 7.8376 160.463 8.26532 159.96 8.61755C159.356 9.22139 158.249 10.4542 156.639 12.3161C155.28 13.9263 153.343 16.2913 150.827 19.4111C148.311 22.4807 144.94 26.6572 140.713 31.9408C144.135 35.5638 146.902 38.432 149.016 40.5455C151.129 42.6589 152.79 44.2691 153.997 45.3762C155.406 46.6845 156.438 47.5651 157.092 48.0179C157.696 48.3702 158.526 48.8231 159.583 49.3766C160.489 49.8798 161.671 50.5088 163.13 51.2636C164.59 51.968 166.451 52.8235 168.716 53.8299H156.111C155.054 53.8299 153.771 53.8802 152.261 53.9808C150.953 54.0815 149.343 54.1821 147.431 54.2828C145.518 54.3834 143.279 54.5595 140.713 54.8111C141.619 54.2576 142.273 53.7292 142.675 53.226C143.128 52.6725 143.43 52.1945 143.581 51.7919C143.782 51.3391 143.808 50.9365 143.657 50.5843C143.405 50.0811 142.977 49.3263 142.373 48.3199C141.82 47.4644 141.04 46.2568 140.034 44.6968C139.027 43.1369 137.643 41.0738 135.882 38.5075C133.869 40.6713 132.31 42.4828 131.202 43.942C130.146 45.351 129.341 46.4832 128.787 47.3386C128.183 48.345 127.781 49.1501 127.579 49.754C127.579 50.3075 127.705 50.861 127.957 51.4145C128.208 51.9177 128.611 52.4712 129.165 53.0751C129.768 53.6789 130.649 54.2576 131.806 54.8111L109.464 55.7924C111.276 54.5344 112.785 53.4022 113.993 52.3958C115.201 51.3391 116.182 50.4585 116.937 49.754C117.792 48.8985 118.472 48.1437 118.975 47.4896C119.478 46.7348 120.258 45.6278 121.315 44.1685C122.17 42.9105 123.353 41.2248 124.862 39.1113C126.422 36.9979 128.41 34.2806 130.825 30.9595C128.158 26.6824 125.994 23.2858 124.334 20.7698C122.724 18.2538 121.415 16.3165 120.409 14.9578C119.252 13.3979 118.396 12.3161 117.843 11.7122C117.339 11.2593 116.635 10.7561 115.729 10.2026C114.974 9.69943 113.993 9.09559 112.785 8.39111C111.578 7.63632 110.093 6.75572 108.332 5.74933Z" fill="white"/>
<path d="M192.039 48.6973C193.851 48.4457 195.26 48.7476 196.266 49.603C197.323 50.4585 197.826 51.641 197.776 53.1506C197.725 53.9054 197.574 54.5092 197.323 54.9621C197.071 55.415 196.719 55.7672 196.266 56.0188C195.863 56.2201 195.36 56.3962 194.756 56.5471C194.203 56.6478 193.549 56.7484 192.794 56.8491C192.039 57 191.309 56.9749 190.605 56.7736C189.9 56.522 189.271 56.1698 188.718 55.7169C188.164 55.264 187.712 54.7608 187.359 54.2073C187.057 53.6538 186.906 53.1002 186.906 52.5467C186.906 51.9429 187.057 51.4397 187.359 51.0371C187.712 50.5843 188.139 50.2069 188.643 49.9049C189.196 49.5527 189.75 49.3011 190.303 49.1501C190.907 48.9489 191.486 48.7979 192.039 48.6973Z" fill="white"/>
<path d="M16.8508 5.29645C17.9578 4.69261 19.2158 4.16425 20.6247 3.71137C22.0337 3.20818 23.493 2.83078 25.0026 2.57918C26.5122 2.27726 28.0217 2.10114 29.5313 2.05082C31.0913 2.0005 32.5505 2.1263 33.9092 2.42822C37.8844 3.28366 41.2307 4.91905 43.948 7.3344C46.6652 9.74975 48.7535 12.5677 50.2128 15.7881C51.7224 19.0086 52.603 22.4807 52.8546 26.2043C53.1565 29.8777 52.8546 33.4252 51.9488 36.847C51.6469 37.8534 51.1437 39.0107 50.4392 40.319C49.8354 41.4261 49.0051 42.7847 47.9484 44.3949C46.8917 45.9548 45.5079 47.6909 43.797 49.603C44.1996 50.5088 44.6021 51.2384 45.0047 51.7919C45.4576 52.2951 45.8853 52.6725 46.2878 52.9241C46.7407 53.226 47.1684 53.4273 47.571 53.528C47.9735 53.5783 48.4516 53.6034 49.0051 53.6034C49.458 53.6034 49.9863 53.5783 50.5902 53.528C51.2443 53.4273 51.9488 53.2764 52.7036 53.0751L40.9288 62.8874C40.7778 62.0823 40.6017 61.3778 40.4004 60.774C40.2495 60.2205 40.1237 59.7425 40.023 59.3399L39.5701 58.2077C39.3689 57.9561 39.1676 57.629 38.9663 57.2265C38.765 56.9245 38.5386 56.5471 38.287 56.0943C38.0354 55.6414 37.7083 55.1382 37.3057 54.5847C34.1356 55.7924 31.2422 56.5723 28.6256 56.9245C26.0593 57.2768 23.7194 57.3019 21.606 57C19.4925 56.7484 17.6056 56.2704 15.945 55.5659C14.2844 54.8111 12.8252 53.9557 11.5672 52.9996C8.64863 50.7352 6.35908 47.7663 4.69853 44.093C2.83669 39.061 1.98126 34.4568 2.13222 30.2802C2.3335 26.0534 3.13861 22.3045 4.54757 19.0338C5.95652 15.7126 7.76803 12.8947 9.9821 10.58C12.2465 8.26532 14.536 6.50412 16.8508 5.29645ZM28.0217 43.6401C27.267 43.4388 26.5625 43.3634 25.9083 43.4137C25.3548 43.464 24.8013 43.6401 24.2478 43.942C23.6942 44.244 23.2917 44.7975 23.0401 45.6026C23.6942 46.2568 24.2981 46.8103 24.8516 47.2631C25.4554 47.6657 25.9586 47.9928 26.3612 48.2444C26.8644 48.5463 27.3173 48.7979 27.7198 48.9992C28.4243 49.2508 29.1288 49.4521 29.8333 49.603C30.4371 49.7037 31.0913 49.754 31.7957 49.754C32.5505 49.7037 33.255 49.5024 33.9092 49.1501C33.406 48.0934 32.8021 47.2128 32.0977 46.5084C31.4435 45.7536 30.8145 45.1749 30.2107 44.7723C29.5062 44.2691 28.7765 43.8917 28.0217 43.6401ZM20.0209 40.9229C20.8763 39.6145 21.8073 38.6836 22.8137 38.1301C23.82 37.5766 24.7761 37.174 25.6819 36.9224C26.7386 36.7212 27.8205 36.6457 28.9275 36.696C29.9842 36.9476 31.0409 37.3753 32.0977 37.9791C33.0034 38.5327 33.9595 39.3126 34.9659 40.319C35.9723 41.2751 36.9032 42.5834 37.7586 44.244C38.5637 43.0363 39.1676 41.7783 39.5701 40.47C39.9727 39.1617 40.2746 37.9791 40.4759 36.9224C40.6772 35.6644 40.7778 34.4316 40.7778 33.2239C40.6772 31.3621 40.4759 29.3996 40.174 27.3365C39.8721 25.2734 39.4192 23.2355 38.8153 21.2227C38.2618 19.2099 37.5574 17.2977 36.7019 15.4862C35.8465 13.6747 34.8149 12.1148 33.6072 10.8065C32.4499 9.49815 31.0913 8.51691 29.5313 7.86276C28.0217 7.2086 26.3109 7.03248 24.3987 7.3344C22.2853 7.63632 20.5493 8.49175 19.1906 9.90071C17.8823 11.3097 16.8508 12.9702 16.096 14.8824C15.3915 16.7442 14.9386 18.757 14.7373 20.9207C14.5864 23.0342 14.6115 24.9463 14.8128 26.6572C14.9638 28.0662 15.2657 29.5506 15.7186 31.1105C16.1211 32.4188 16.6495 33.9284 17.3036 35.6393C17.9578 37.3502 18.8635 39.1113 20.0209 40.9229Z" stroke="#2B4B82" stroke-width="3.9254" mask="url(#path-2-outside-1_110_33)"/>
<path d="M56.855 22.2794C58.1633 22.531 59.2955 22.7323 60.2516 22.8832C61.258 22.9839 62.1134 23.0845 62.8179 23.1851C63.623 23.2858 64.3275 23.3613 64.9313 23.4116C65.5351 23.4619 66.2396 23.5122 67.0447 23.5625C68.4034 23.6129 70.3155 23.6129 72.7812 23.5625C71.3219 23.4619 70.1646 23.8393 69.3091 24.6947C68.504 25.4998 67.9002 26.4308 67.4976 27.4875C66.9944 28.7455 66.7177 30.2047 66.6673 31.8653C66.5667 34.0794 66.617 36.0922 66.8183 37.9037C67.0699 39.6649 67.4976 41.1745 68.1015 42.4324C68.7556 43.6401 69.611 44.5459 70.6678 45.1497C71.7245 45.7032 73.0831 45.8542 74.7437 45.6026C76.4042 45.351 77.6622 44.7723 78.5177 43.8666C79.4234 42.9105 80.0776 41.7531 80.4801 40.3945C80.8827 38.9855 81.1091 37.4005 81.1594 35.6393C81.2601 33.8781 81.3356 32.0414 81.3859 30.1293C81.3859 28.2171 81.3607 26.8585 81.3104 26.0534C81.3104 25.1979 81.2852 24.6444 81.2349 24.3928C81.1846 24.1412 81.1091 24.0406 81.0085 24.0909C80.9078 24.0909 80.782 23.9651 80.6311 23.7135C80.5304 23.5122 80.3795 23.3109 80.1782 23.1097C80.0272 22.9084 79.826 22.6819 79.5744 22.4303C79.3228 22.1284 79.046 21.8265 78.7441 21.5246C80.0524 21.5749 81.2098 21.6252 82.2162 21.6755C83.2729 21.6755 84.1535 21.7007 84.8579 21.751C85.6631 21.8013 86.3675 21.8517 86.9714 21.902C87.5249 21.9523 88.2545 22.0278 89.1603 22.1284C89.9151 22.2291 90.8963 22.3297 92.104 22.4303C93.3117 22.531 94.7458 22.6819 96.4063 22.8832C95.249 23.1348 94.3181 23.5122 93.6136 24.0154C92.9091 24.5186 92.3556 25.0218 91.953 25.525C91.5002 26.0785 91.1731 26.6824 90.9718 27.3365C90.8208 28.1919 90.8208 29.5003 90.9718 31.2615C91.0724 32.8214 91.324 34.96 91.7266 37.6772C92.1292 40.3945 92.7581 43.9672 93.6136 48.3953L87.6507 51.9429L86.443 41.9041C84.9837 44.3698 83.4238 46.2819 81.7633 47.6405C80.153 48.9489 78.6434 49.9049 77.2345 50.5088C75.5739 51.2132 73.9637 51.6158 72.4038 51.7164C70.3407 51.7164 68.5543 51.5906 67.0447 51.3391C65.5855 51.0371 64.3275 50.6597 63.2708 50.2069C62.214 49.754 61.3586 49.2508 60.7044 48.6973C60.1006 48.0934 59.6477 47.4896 59.3458 46.8857C58.6413 45.6278 58.2639 44.0175 58.2136 42.055C58.1633 40.0423 58.2388 38.0546 58.4401 36.0922C58.6413 34.0794 58.8678 32.2427 59.1194 30.5821C59.371 28.9216 59.4465 27.7894 59.3458 27.1856C59.2452 26.7327 59.0942 26.2295 58.8929 25.676C58.6917 25.2231 58.4401 24.7199 58.1381 24.1664C57.8362 23.5625 57.4085 22.9335 56.855 22.2794Z" stroke="#2B4B82" stroke-width="3.9254" mask="url(#path-2-outside-1_110_33)"/>
<path d="M97.5385 23.2606L111.427 23.4116C110.622 26.4811 110.018 29.0977 109.615 31.2615C109.263 33.4252 109.037 35.2367 108.936 36.696C108.735 38.3565 108.684 39.7655 108.785 40.9229C108.936 41.9796 109.188 43.1118 109.54 44.3194C109.842 45.3258 110.295 46.4832 110.898 47.7915C111.502 49.0998 112.307 50.4081 113.314 51.7164C112.71 51.5152 112.056 51.3642 111.351 51.2636C110.647 51.1629 109.993 51.0875 109.389 51.0371C108.684 50.9868 107.98 50.9868 107.275 51.0371C106.571 51.0875 105.791 51.1629 104.936 51.2636C104.231 51.3642 103.376 51.49 102.369 51.641C101.363 51.7919 100.306 51.9932 99.1991 52.2448C99.9539 49.9804 100.533 48.0179 100.935 46.3574C101.388 44.6968 101.715 43.313 101.916 42.206C102.118 40.8977 102.243 39.841 102.294 39.0359C102.294 38.0295 102.294 36.8973 102.294 35.6393C102.294 34.331 102.294 33.073 102.294 31.8653C102.294 30.6576 102.269 29.6009 102.218 28.6951C102.168 27.7391 102.067 27.1352 101.916 26.8836L101.162 26.1288C100.86 25.8772 100.407 25.525 99.8029 25.0721C99.2494 24.5689 98.4946 23.9651 97.5385 23.2606ZM102.898 11.6367C103.954 11.0832 105.011 10.9323 106.068 11.1839C107.175 11.4355 108.03 11.9135 108.634 12.618C109.238 13.3225 109.439 14.1527 109.238 15.1088C109.087 16.0649 108.282 16.9958 106.823 17.9016C105.363 18.757 104.08 19.0589 102.973 18.8073C101.866 18.5557 101.086 18.0274 100.633 17.2222C100.18 16.4171 100.105 15.4862 100.407 14.4295C100.709 13.3225 101.539 12.3915 102.898 11.6367Z" stroke="#2B4B82" stroke-width="3.9254" mask="url(#path-2-outside-1_110_33)"/>
<path d="M108.332 5.74933C110.546 5.84997 112.433 5.92545 113.993 5.97577C115.553 6.02608 116.836 6.07641 117.843 6.12672C119.05 6.17704 120.031 6.22736 120.786 6.27768C121.591 6.328 122.598 6.35316 123.805 6.35316C125.869 6.35316 128.787 6.2022 132.561 5.90029C131.756 6.30284 131.127 6.75572 130.674 7.25892C130.221 7.7118 129.869 8.16468 129.617 8.61755C129.315 9.17107 129.089 9.69943 128.938 10.2026C128.837 10.8065 129.064 11.7374 129.617 12.9954C130.02 14.0521 130.75 15.4862 131.806 17.2977C132.863 19.1092 134.423 21.4491 136.486 24.3173C138.952 20.6943 140.864 17.8512 142.223 15.7881C143.581 13.725 144.588 12.1651 145.242 11.1084C145.996 9.85039 146.449 9.02011 146.6 8.61755C146.55 8.36595 146.349 8.01372 145.996 7.56084C145.695 7.15828 145.191 6.68024 144.487 6.12672C143.833 5.52289 142.852 4.79325 141.543 3.93781C143.606 4.23973 145.317 4.46617 146.676 4.61713C148.085 4.76809 149.217 4.86873 150.072 4.91905C151.079 4.96937 151.909 4.96937 152.563 4.91905C153.217 4.86873 154.173 4.81841 155.431 4.76809C156.488 4.71777 157.897 4.66745 159.658 4.61713C161.47 4.56681 163.785 4.49133 166.602 4.39069C165.495 4.94421 164.539 5.47257 163.734 5.97577C162.929 6.47896 162.25 6.93184 161.696 7.3344C161.042 7.8376 160.463 8.26532 159.96 8.61755C159.356 9.22139 158.249 10.4542 156.639 12.3161C155.28 13.9263 153.343 16.2913 150.827 19.4111C148.311 22.4807 144.94 26.6572 140.713 31.9408C144.135 35.5638 146.902 38.432 149.016 40.5455C151.129 42.6589 152.79 44.2691 153.997 45.3762C155.406 46.6845 156.438 47.5651 157.092 48.0179C157.696 48.3702 158.526 48.8231 159.583 49.3766C160.489 49.8798 161.671 50.5088 163.13 51.2636C164.59 51.968 166.451 52.8235 168.716 53.8299H156.111C155.054 53.8299 153.771 53.8802 152.261 53.9808C150.953 54.0815 149.343 54.1821 147.431 54.2828C145.518 54.3834 143.279 54.5595 140.713 54.8111C141.619 54.2576 142.273 53.7292 142.675 53.226C143.128 52.6725 143.43 52.1945 143.581 51.7919C143.782 51.3391 143.808 50.9365 143.657 50.5843C143.405 50.0811 142.977 49.3263 142.373 48.3199C141.82 47.4644 141.04 46.2568 140.034 44.6968C139.027 43.1369 137.643 41.0738 135.882 38.5075C133.869 40.6713 132.31 42.4828 131.202 43.942C130.146 45.351 129.341 46.4832 128.787 47.3386C128.183 48.345 127.781 49.1501 127.579 49.754C127.579 50.3075 127.705 50.861 127.957 51.4145C128.208 51.9177 128.611 52.4712 129.165 53.0751C129.768 53.6789 130.649 54.2576 131.806 54.8111L109.464 55.7924C111.276 54.5344 112.785 53.4022 113.993 52.3958C115.201 51.3391 116.182 50.4585 116.937 49.754C117.792 48.8985 118.472 48.1437 118.975 47.4896C119.478 46.7348 120.258 45.6278 121.315 44.1685C122.17 42.9105 123.353 41.2248 124.862 39.1113C126.422 36.9979 128.41 34.2806 130.825 30.9595C128.158 26.6824 125.994 23.2858 124.334 20.7698C122.724 18.2538 121.415 16.3165 120.409 14.9578C119.252 13.3979 118.396 12.3161 117.843 11.7122C117.339 11.2593 116.635 10.7561 115.729 10.2026C114.974 9.69943 113.993 9.09559 112.785 8.39111C111.578 7.63632 110.093 6.75572 108.332 5.74933Z" stroke="#2B4B82" stroke-width="3.9254" mask="url(#path-2-outside-1_110_33)"/>
<path d="M192.039 48.6973C193.851 48.4457 195.26 48.7476 196.266 49.603C197.323 50.4585 197.826 51.641 197.776 53.1506C197.725 53.9054 197.574 54.5092 197.323 54.9621C197.071 55.415 196.719 55.7672 196.266 56.0188C195.863 56.2201 195.36 56.3962 194.756 56.5471C194.203 56.6478 193.549 56.7484 192.794 56.8491C192.039 57 191.309 56.9749 190.605 56.7736C189.9 56.522 189.271 56.1698 188.718 55.7169C188.164 55.264 187.712 54.7608 187.359 54.2073C187.057 53.6538 186.906 53.1002 186.906 52.5467C186.906 51.9429 187.057 51.4397 187.359 51.0371C187.712 50.5843 188.139 50.2069 188.643 49.9049C189.196 49.5527 189.75 49.3011 190.303 49.1501C190.907 48.9489 191.486 48.7979 192.039 48.6973Z" stroke="#2B4B82" stroke-width="3.9254" mask="url(#path-2-outside-1_110_33)"/>
<defs>
<linearGradient id="paint0_linear_110_33" x1="57.4986" y1="22.0883" x2="103.069" y2="73.5719" gradientUnits="userSpaceOnUse">
<stop stop-color="#F7B4A7"/>
<stop offset="1" stop-color="#94DDDE"/>
</linearGradient>
<linearGradient id="paint1_linear_110_33" x1="57.4986" y1="22.0883" x2="103.069" y2="73.5719" gradientUnits="userSpaceOnUse">
<stop stop-color="#F7B4A7"/>
<stop offset="1" stop-color="#94DDDE"/>
</linearGradient>
<linearGradient id="paint2_linear_110_33" x1="57.4986" y1="22.0883" x2="103.069" y2="73.5719" gradientUnits="userSpaceOnUse">
<stop stop-color="#F7B4A7"/>
<stop offset="1" stop-color="#94DDDE"/>
</linearGradient>
<linearGradient id="paint3_linear_110_33" x1="57.4986" y1="22.0883" x2="103.069" y2="73.5719" gradientUnits="userSpaceOnUse">
<stop stop-color="#F7B4A7"/>
<stop offset="1" stop-color="#94DDDE"/>
</linearGradient>
<linearGradient id="paint4_linear_110_33" x1="57.4986" y1="22.0883" x2="103.069" y2="73.5719" gradientUnits="userSpaceOnUse">
<stop stop-color="#F7B4A7"/>
<stop offset="1" stop-color="#94DDDE"/>
</linearGradient>
</defs>
</svg>
